<?xml version="1.0" encoding="UTF-8"?>
<!DOCTYPE svg PUBLIC "-//W3C//DTD SVG 1.1//EN" "http://www.w3.org/Graphics/SVG/1.1/DTD/svg11.dtd">
<!-- Creator: CorelDRAW -->
<svg xmlns="http://www.w3.org/2000/svg" xml:space="preserve" width="1.1in" height="1.1in" style="shape-rendering:geometricPrecision; text-rendering:geometricPrecision; image-rendering:optimizeQuality; fill-rule:evenodd; clip-rule:evenodd"
viewBox="0 0 110000 110000"
 xmlns:xlink="http://www.w3.org/1999/xlink">
 <defs>
  <style type="text/css">
   <![CDATA[
    .fil0 {fill:#445772}
   ]]>
  </style>
 </defs>
 <g id="Layer_x0020_1">
  <metadata id="CorelCorpID_0Corel-Layer"/>
  <g id="_109985736">
   <g>
    <path id="_97869784" class="fil0" d="M-414828 -714507l-195.276 1171.65 -195.669 976.772 -195.276 781.102 -195.276 781.102 -195.276 586.22 -195.276 585.827 -195.276 585.827 -195.276 586.22 -195.276 390.551 -195.276 585.827 -195.276 390.551 -195.669 390.551 -195.276 586.22 -195.276 390.551 -195.276 390.551 -195.276 390.551 -195.276 390.551 -195.276 195.669 -195.276 390.551 -195.276 390.551 -195.276 195.276 -195.276 390.551 -195.276 390.551 -195.669 195.669 -195.276 390.551 -195.276 195.276 -195.276 195.276 -195.276 390.551 -195.276 195.276 -195.276 195.276 -195.276 390.551 -195.276 195.669 -195.669 195.276 -195.276 195.276 -195.276 390.551 -195.276 195.276 -195.276 195.276 -195.276 195.276 -195.276 195.276 -195.276 195.276 -195.276 195.276 -195.276 195.669 -195.276 195.276 -195.276 195.276 -195.669 195.276 -195.276 195.276 -195.276 195.276 -195.276 195.276 -195.276 195.276 -195.276 195.276 -195.276 195.276 -195.276 195.669 -390.551 195.276 -195.669 195.276 -195.276 195.276 -195.276 195.276 -390.551 195.276 -195.276 195.276 -195.276 195.276 -390.551 195.276 -195.276 195.276 -390.945 195.276 -195.276 195.276 -390.551 195.669 -195.276 195.276 -390.551 195.276 -390.551 195.276 -195.276 195.276 -390.945 195.276 -390.551 195.276 -390.551 195.276 -390.551 195.276 -390.551 195.669 -390.945 195.276 -390.551 195.276 -390.551 195.276 -585.827 195.276 -585.827 195.276 -390.945 195.276 -585.827 195.276 -585.827 195.276 -586.22 195.276 -781.102 195.276 -781.102 195.276 -781.496 195.669 -1171.65 195.276 -1367.32 195.276 -2929.53 195.276 -1367.32 0 -2538.98 -195.276 -1367.32 -195.276 -976.378 -195.276 -976.772 -195.669 -781.102 -195.276 -781.102 -195.276 -586.22 -195.276 -585.827 -195.276 -585.827 -195.276 -586.22 -195.276 -390.551 -195.276 -585.827 -195.276 -390.551 -195.276 -390.551 -195.276 -390.945 -195.276 -390.551 -195.669 -390.551 -195.276 -390.551 -195.276 -781.496 0 -781.102 195.276 -781.102 195.276 -781.496 195.669 -781.102 195.276 -585.827 195.276 -781.496 195.276 -781.102 195.276 -781.102 195.276 -781.496 195.276 -781.102 195.276 -586.22 195.276 -781.102 195.276 -781.102 195.276 -781.496 195.276 -781.102 195.669 -585.827 195.276 -781.496 195.276 -781.102 195.276 -781.102 195.276 -781.496 195.276 0 -390.551 195.276 -781.496 195.276 -585.827 195.669 -781.102 195.276 -585.827 195.276 -781.496 195.276 -781.102 195.276 -586.22 195.276 -781.102 195.276 -781.102 195.276 -585.827 195.276 -781.496 195.276 -781.102 195.276 -586.22 195.276 -781.102 195.669 -781.102 195.276 -586.22 195.276 -781.102 195.276 -781.102 195.276 -586.22 195.276 -781.102 0 -781.102 -195.276 -390.945 -195.276 -390.551 -195.276 -390.551 -195.276 -390.551 -195.276 -390.551 -195.669 -390.551 -195.276 -390.945 -195.276 -585.827 -195.276 -390.551 -195.276 -585.827 -195.276 -390.945 -195.276 -585.827 -195.276 -585.827 -195.276 -781.496 -195.276 -585.827 -195.276 -976.378 -195.276 -781.496 -195.669 -1171.65 -195.276 -1562.6 0 -6054.72 195.276 -1367.32 195.669 -1171.65 195.276 -976.772 195.276 -781.102 195.276 -585.827 195.276 -781.496 195.276 -585.827 195.276 -585.827 195.276 -585.827 195.276 -390.945 195.276 -585.827 195.276 -390.551 195.276 -390.551 195.669 -390.551 195.276 -390.945 195.276 -390.551 195.276 -390.551 195.276 -390.551 195.276 -390.551 195.276 -390.945 195.276 -195.276 195.276 -390.551 195.669 -390.551 195.276 -195.276 195.276 -390.551 195.276 -195.276 195.276 -390.945 195.276 -195.276 195.276 -195.276 195.276 -390.551 195.276 -195.276 195.276 -195.276 195.276 -390.551 195.276 -195.276 195.669 -195.669 195.276 -195.276 195.276 -195.276 195.276 -390.551 195.276 -195.276 195.276 -195.276 195.276 -195.276 195.276 -195.276 195.276 -195.276 195.276 -195.669 195.669 -195.276 195.276 -195.276 195.276 -195.276 195.276 -195.276 195.276 -195.276 390.551 -195.276 195.276 -195.276 195.276 -195.276 195.276 -195.276 195.276 -195.276 390.945 -195.276 195.276 -195.669 195.276 -195.276 195.276 -195.276 390.551 -195.276 195.276 -195.276 390.551 -195.276 195.276 -195.276 195.669 -195.276 390.551 -195.276 390.551 -195.669 195.276 -195.276 390.551 -195.276 390.551 -195.276 195.669 -195.276 390.551 -195.276 390.551 -195.276 390.551 -195.276 390.551 -195.276 390.551 -195.276 390.945 -195.276 585.827 -195.276 390.551 -195.669 390.551 -195.276 586.22 -195.276 585.827 -195.276 585.827 -195.276 585.827 -195.276 781.496 -195.276 585.827 -195.276 976.772 -195.276 976.378 -195.276 1172.05 -195.669 1952.76 -195.276 4101.57 0 1953.15 195.276 1172.05 195.669 976.378 195.276 976.772 195.276 781.102 195.276 586.22 195.276 585.827 195.276 585.827 195.276 585.827 195.276 586.22 195.276 390.551 195.276 585.827 195.669 390.551 195.276 390.945 195.276 390.551 195.276 390.551 195.276 390.551 195.276 390.551 195.276 390.945 195.276 195.276 195.276 390.551 195.276 390.551 195.276 195.276 195.276 390.551 195.669 390.551 195.276 195.669 195.276 195.276 195.276 390.551 195.276 195.276 195.276 390.551 195.276 195.276 195.276 195.276 195.276 195.276 195.669 390.945 195.276 195.276 195.276 195.276 195.276 195.276 195.276 195.276 195.276 390.551 195.276 195.276 195.276 195.276 195.276 195.276 195.276 195.669 195.276 195.276 195.276 195.276 195.669 195.276 195.276 195.276 195.276 195.276 195.276 195.276 195.276 195.276 390.551 195.276 195.276 195.276 195.276 195.276 195.276 195.276 195.669 195.669 195.276 195.276 390.551 195.276 195.276 195.276 195.276 195.276 390.551 195.276 195.276 195.276 195.276 195.276 390.945 195.276 195.276 195.669 390.551 195.276 195.276 195.276 390.551 195.276 390.551 195.276 195.276 195.276 390.945 195.276 390.551 195.276 390.551 195.276 390.551 195.276 390.551 195.276 390.945 195.276 390.551 195.669 390.551 195.276 390.551 195.276 585.827 195.276 586.22 195.276 390.551 195.276 585.827 195.276 585.827 195.276 781.496 195.276 781.102 195.276 781.496 195.669 976.378 195.276 1172.05 195.276 1562.2 0 5273.62 -195.276 1757.87zm-36718.9 -53320.5l-1562.6 195.276 -976.378 195.276 -1172.05 195.276 -976.378 195.669 -781.496 195.276 -781.102 195.276 -781.102 195.276 -586.22 195.276 -781.102 195.276 -585.827 195.276 -586.22 195.276 -585.827 195.276 -585.827 195.276 -585.827 195.276 -390.945 195.276 -585.827 195.669 -390.551 195.276 -585.827 195.276 -390.945 195.276 -390.551 195.276 -585.827 195.276 -390.551 195.276 -390.551 195.276 -390.945 195.276 -390.551 195.276 -390.551 195.669 -390.551 195.276 -390.551 195.276 -390.551 195.276 -195.669 195.276 -390.551 195.276 -390.551 195.276 -390.551 195.276 -195.276 195.276 -390.945 195.276 -390.551 195.276 -195.276 195.669 -390.551 195.276 -195.276 195.276 -390.551 195.276 -195.276 195.276 -390.551 195.276 -195.669 195.276 -390.551 195.276 -195.276 195.276 -390.551 195.276 -195.276 195.276 -195.276 195.669 -390.551 195.276 -195.669 195.276 -195.276 195.276 -390.551 195.276 -195.276 195.276 -195.276 195.276 -195.276 195.276 -390.551 195.276 -195.276 195.276 -195.276 195.669 -195.669 195.276 -195.276 195.276 -390.551 195.276 -195.276 195.276 -195.276 195.276 -195.276 195.276 -195.276 195.276 -195.276 195.276 -195.276 195.276 -195.276 195.276 -195.669 195.669 -195.276 195.276 -195.276 195.276 -195.276 195.276 -195.276 195.276 -195.276 195.276 -195.276 195.276 -195.276 195.276 -195.276 195.276 -195.276 195.276 -195.669 195.669 -195.276 195.276 -195.276 195.276 -195.276 195.276 -195.276 195.276 -195.276 195.276 -195.276 195.276 -195.276 195.276 -195.276 390.551 -195.276 195.276 -195.276 195.669 -195.669 195.276 -195.276 195.276 -195.276 390.551 -195.276 195.276 -195.276 195.276 -195.276 195.276 -195.276 390.551 -195.276 195.276 -195.276 195.669 -195.276 390.551 -195.669 195.276 -195.276 195.276 -195.276 390.551 -195.276 195.276 -195.276 390.551 -195.276 195.669 -195.276 390.551 -195.276 195.276 -195.276 390.551 -195.276 195.276 -195.276 390.551 -195.669 195.276 -195.276 390.551 -195.276 390.945 -195.276 195.276 -195.276 390.551 -195.276 390.551 -195.276 390.551 -195.276 195.669 -195.276 390.551 -195.276 390.551 -195.276 390.551 -195.669 390.551 -195.276 390.551 -195.276 390.945 -195.276 390.551 -195.276 390.551 -195.276 585.827 -195.276 390.551 -195.276 390.945 -195.276 585.827 -195.276 390.551 -195.669 585.827 -195.276 390.945 -195.276 585.827 -195.276 585.827 -195.276 585.827 -195.276 586.22 -195.276 585.827 -195.276 781.102 -195.276 586.22 -195.276 781.102 -195.276 781.102 -195.276 781.496 -195.669 976.378 -195.276 976.772 -195.276 1171.65 -195.276 1367.32 -195.276 1953.15 0 8984.25 195.276 1757.87 195.276 1562.6 195.276 1171.65 195.276 976.772 195.669 976.378 195.276 781.496 195.276 781.102 195.276 781.102 195.276 586.22 195.276 781.102 195.276 585.827 195.276 586.22 195.276 585.827 195.276 585.827 195.276 585.827 195.276 390.945 195.669 585.827 195.276 390.551 195.276 585.827 195.276 390.945 195.276 390.551 195.276 585.827 195.276 390.551 195.276 390.551 195.276 390.945 195.276 390.551 195.669 390.551 195.276 390.551 195.276 390.551 195.276 390.551 195.276 195.669 195.276 390.551 195.276 390.551 195.276 390.551 195.276 195.276 195.276 390.945 195.276 390.551 195.669 195.276 195.276 390.551 195.276 195.276 195.276 390.551 195.276 195.276 195.276 390.551 195.276 195.669 195.276 390.551 195.276 195.276 195.276 390.551 195.276 195.276 195.669 195.276 195.276 390.551 195.276 195.669 195.276 195.276 195.276 390.551 195.276 195.276 195.276 195.276 195.276 195.276 195.276 390.551 195.276 195.276 195.669 195.276 195.276 195.669 195.276 195.276 195.276 390.551 195.276 195.276 195.276 195.276 195.276 195.276 195.276 195.276 195.276 195.276 195.276 195.276 195.276 195.276 195.669 195.669 195.276 195.276 195.276 195.276 195.276 195.276 195.276 195.276 195.276 195.276 195.276 195.276 195.276 195.276 195.276 195.276 195.276 195.276 195.669 195.669 195.276 195.276 195.276 195.276 195.276 195.276 195.276 195.276 195.276 195.276 195.276 195.276 390.551 195.276 195.276 195.276 195.276 195.276 195.669 195.276 195.276 195.669 195.276 195.276 390.551 195.276 195.276 195.276 195.276 195.276 195.276 195.276 390.551 195.276 195.276 195.276 195.669 195.276 390.551 195.276 195.276 195.669 195.276 195.276 390.551 195.276 195.276 195.276 390.551 195.276 195.669 195.276 390.551 195.276 195.276 195.276 390.551 195.276 195.276 195.276 390.551 195.276 195.276 195.669 390.551 195.276 390.945 195.276 195.276 195.276 390.551 195.276 390.551 195.276 390.551 195.276 195.669 195.276 390.551 195.276 390.551 195.276 390.551 195.276 390.551 195.669 390.551 195.276 390.945 195.276 390.551 195.276 390.551 195.276 585.827 195.276 390.551 195.276 390.945 195.276 585.827 195.276 390.551 195.276 585.827 195.669 390.945 195.276 585.827 195.276 585.827 195.276 585.827 195.276 586.22 195.276 585.827 195.276 781.102 195.276 586.22 195.276 781.102 195.276 781.102 195.276 781.496 195.276 976.378 195.669 1172.05 195.276 976.378 195.276 1562.6 195.276 1757.87 195.276 8984.25 0 1757.87 -195.276 1562.6 -195.276 1171.65 -195.276 976.772 -195.276 976.378 -195.669 781.496 -195.276 781.102 -195.276 781.102 -195.276 586.22 -195.276 781.102 -195.276 585.827 -195.276 586.22 -195.276 585.827 -195.276 585.827 -195.276 585.827 -195.276 390.945 -195.276 585.827 -195.669 390.551 -195.276 585.827 -195.276 390.945 -195.276 390.551 -195.276 585.827 -195.276 390.551 -195.276 390.551 -195.276 390.945 -195.276 390.551 -195.276 390.551 -195.669 390.551 -195.276 390.551 -195.276 390.551 -195.276 195.669 -195.276 390.551 -195.276 390.551 -195.276 390.551 -195.276 195.276 -195.276 390.945 -195.276 390.551 -195.276 195.276 -195.669 390.551 -195.276 195.276 -195.276 390.551 -195.276 195.276 -195.276 390.551 -195.276 195.669 -195.276 390.551 -195.276 195.276 -195.276 390.551 -195.276 195.276 -195.276 195.276 -195.669 390.551 -195.276 195.669 -195.276 195.276 -195.276 390.551 -195.276 195.276 -195.276 195.276 -195.276 195.276 -195.276 390.551 -195.276 195.276 -195.276 195.276 -195.669 195.669 -195.276 195.276 -195.276 195.276 -195.276 390.551 -195.276 195.276 -195.276 195.276 -195.276 195.276 -195.276 195.276 -195.276 195.276 -195.276 195.276 -195.276 195.669 -195.669 195.276 -195.276 195.276 -195.276 195.276 -195.276 195.276 -195.276 195.276 -195.276 195.276 -195.276 195.276 -195.276 195.276 -195.276 195.276 -195.276 195.669 -195.669 195.276 -195.276 195.276 -195.276 195.276 -195.276 195.276 -195.276 195.276 -195.276 195.276 -195.276 195.276 -390.551 195.276 -195.276 195.276 -195.276 195.276 -195.669 195.669 -195.276 195.276 -195.276 195.276 -390.551 195.276 -195.276 195.276 -195.276 195.276 -195.276 195.276 -390.551 195.276 -195.276 195.276 -195.669 195.276 -390.551 195.669 -195.276 195.276 -195.276 195.276 -390.551 195.276 -195.276 195.276 -390.551 195.276 -195.669 195.276 -390.551 195.276 -195.276 195.276 -390.551 195.276 -195.276 195.276 -390.551 195.669 -195.276 195.276 -390.551 195.276 -390.945 195.276 -195.276 195.276 -390.551 195.276 -390.551 195.276 -390.551 195.276 -195.669 195.276 -390.551 195.276 -390.551 195.276 -390.551 195.669 -390.551 195.276 -390.551 195.276 -390.945 195.276 -390.551 195.276 -390.551 195.276 -585.827 195.276 -390.551 195.276 -390.945 195.276 -585.827 195.276 -390.551 195.669 -585.827 195.276 -390.945 195.276 -585.827 195.276 -585.827 195.276 -585.827 195.276 -586.22 195.276 -585.827 195.276 -781.102 195.276 -586.22 195.276 -781.102 195.276 -781.102 195.276 -781.496 195.669 -976.378 195.276 -976.772 195.276 -1171.65 195.276 -1562.6 195.276 -1757.87 0 -8984.25 -195.276 -1757.87 -195.276 -1562.6 -195.276 -1171.65 -195.276 -976.772 -195.669 -976.378 -195.276 -781.496 -195.276 -781.102 -195.276 -781.102 -195.276 -586.22 -195.276 -781.102 -195.276 -585.827 -195.276 -586.22 -195.276 -585.827 -195.276 -585.827 -195.276 -585.827 -195.276 -390.945 -195.669 -585.827 -195.276 -390.551 -195.276 -585.827 -195.276 -390.945 -195.276 -390.551 -195.276 -585.827 -195.276 -390.551 -195.276 -390.551 -195.276 -390.945 -195.276 -390.551 -195.669 -390.551 -195.276 -390.551 -195.276 -390.551 -195.276 -390.551 -195.276 -195.669 -195.276 -390.551 -195.276 -390.551 -195.276 -390.551 -195.276 -195.276 -195.276 -390.945 -195.276 -390.551 -195.669 -195.276 -195.276 -390.551 -195.276 -195.276 -195.276 -390.551 -195.276 -195.276 -195.276 -390.551 -195.276 -195.669 -195.276 -390.551 -195.276 -195.276 -195.276 -390.551 -195.276 -195.276 -195.669 -195.276 -195.276 -390.551 -195.276 -195.669 -195.276 -195.276 -195.276 -390.551 -195.276 -195.276 -195.276 -195.276 -195.276 -195.276 -195.276 -390.551 -195.276 -195.276 -195.669 -195.276 -195.276 -195.669 -195.276 -195.276 -195.276 -195.276 -195.276 -390.551 -195.276 -195.276 -195.276 -195.276 -195.276 -195.276 -195.276 -195.276 -195.276 -195.276 -195.276 -195.276 -195.669 -195.669 -195.276 -195.276 -195.276 -195.276 -195.276 -195.276 -195.276 -195.276 -195.276 -195.276 -195.276 -195.276 -195.276 -195.276 -195.276 -195.276 -195.276 -195.276 -195.669 -195.669 -195.276 -195.276 -195.276 -195.276 -195.276 -195.276 -195.276 -195.276 -195.276 -195.276 -195.276 -195.276 -195.276 -195.276 -390.551 -195.276 -195.276 -195.276 -195.669 -195.276 -195.276 -195.669 -195.276 -195.276 -390.551 -195.276 -195.276 -195.276 -195.276 -195.276 -195.276 -195.276 -390.551 -195.276 -195.276 -195.276 -195.669 -195.276 -390.551 -195.276 -195.276 -195.669 -195.276 -195.276 -390.551 -195.276 -195.276 -195.276 -390.551 -195.276 -195.669 -195.276 -390.551 -195.276 -195.276 -195.276 -390.551 -195.276 -195.276 -195.276 -390.551 -195.276 -195.276 -195.669 -390.551 -195.276 -390.945 -195.276 -195.276 -195.276 -390.551 -195.276 -390.551 -195.276 -390.551 -195.276 -195.669 -195.276 -390.551 -195.276 -390.551 -195.276 -390.551 -195.276 -390.551 -195.669 -390.551 -195.276 -390.945 -195.276 -390.551 -195.276 -390.551 -195.276 -585.827 -195.276 -390.551 -195.276 -390.945 -195.276 -585.827 -195.276 -390.551 -195.276 -585.827 -195.669 -390.945 -195.276 -585.827 -195.276 -585.827 -195.276 -585.827 -195.276 -586.22 -195.276 -585.827 -195.276 -781.102 -195.276 -586.22 -195.276 -781.102 -195.276 -781.102 -195.276 -781.496 -195.276 -976.378 -195.669 -976.772 -195.276 -1171.65 -195.276 -1562.6 -195.276 -1757.87 -195.276 -8984.25 0 -1757.87 195.276z"/>
    <path id="_6463248" class="fil0" d="M-459164 -726812l195.276 -976.772 195.669 -585.827 195.276 -390.551 195.276 -390.551 195.276 -586.22 195.276 -195.276 195.276 -390.551 195.276 -195.276 195.276 -195.276 195.276 -195.276 195.276 -390.551 195.276 -195.276 195.669 -195.669 195.276 -195.276 390.551 -195.276 390.551 -195.276 3125.2 0 195.276 195.276 195.276 390.551 195.276 390.945 195.276 390.551 195.276 585.827 195.276 390.551 195.276 586.22 195.276 390.551 195.276 390.551 195.276 585.827 195.669 390.551 195.276 586.22 195.276 390.551 195.276 390.551 195.276 585.827 0 1172.05 -195.276 195.276 -195.276 390.551 -195.276 195.276 -195.276 390.551 -195.669 195.669 -195.276 195.276 -195.276 390.551 -195.276 195.276 -195.276 195.276 -195.276 195.276 -195.276 390.551 0 1172.05 195.276 390.551 195.276 195.276 195.276 390.551 195.276 195.276 195.276 390.945 195.276 195.276 195.669 390.551 195.276 195.276 195.276 195.276 195.276 390.551 195.276 195.276 195.276 195.669 195.276 195.276 195.276 195.276 195.276 195.276 195.276 390.551 195.669 195.276 195.276 195.276 195.276 195.276 390.551 195.276 195.276 195.276 195.276 195.276 195.276 195.669 195.276 195.276 195.276 195.276 390.551 195.276 195.669 195.276 195.276 195.276 390.551 195.276 195.276 195.276 390.551 195.276 195.276 195.276 390.945 195.669 390.551 195.276 390.551 195.276 195.276 195.276 390.551 195.276 585.827 195.276 390.945 195.276 390.551 195.276 585.827 195.276 976.772 0 195.276 -195.276 195.276 -195.276 195.276 -195.276 195.276 -195.276 195.276 -195.276 195.276 -390.551 195.276 -195.276 195.276 -195.669 195.276 -195.276 195.276 -195.276 195.669 -390.551 195.276 -195.276 195.276 -195.276 195.276 -390.551 195.276 -195.276 195.276 -195.669 976.378 0 390.945 195.669 390.551 195.276 585.827 195.276 390.551 195.276 390.945 195.276 390.551 195.276 390.551 195.276 390.551 195.276 390.551 195.276 390.551 195.276 390.945 195.669 390.551 195.276 390.551 195.276 390.551 195.276 390.551 195.276 390.945 195.276 195.276 390.551 0 976.772 -195.276 1171.65 -195.276 585.827 -195.669 586.22 -195.276 390.551 -195.276 195.276 -195.276 195.276 0 390.551 -390.551 0 -195.276 195.276 -195.276 195.669 -195.276 195.276 -390.945 195.276 -195.276 195.276 -390.551 195.276 -390.551 195.276 -390.551 195.276 -390.551 195.276 -586.22 195.276 -976.378 195.276 -2538.98 0 -976.772 -195.276 -781.102 -195.276 -585.827 -195.276 -586.22 -195.276 -585.827 -195.276 -390.551 -195.276 -586.22 -195.276 -390.551 -195.276 -585.827 -195.276 -390.551 -195.669 -390.551 -195.276 -390.551 -195.276 -586.22 -195.276 -195.276 -195.276 -390.551 -195.276 -390.551 -195.276 -390.945 -195.276 -195.276 -195.276 -390.551 -195.276 -195.276 -195.669 -390.551 -195.276 -195.276 -195.276 -390.551 -195.276 -195.276 -195.276 -195.276 -195.276 -390.945 -195.276 -195.276 -195.276 -195.276 -195.276 -195.276 -195.276 -390.551 -195.276 -195.276 -195.669 -195.276 -195.276 -195.276 -195.276 -195.669 -195.276 -195.276 -195.276 -195.276 -195.276 -195.276 -195.276 -195.276 -195.276 -195.276 -195.276 -195.276 -195.276 -195.276 -195.276 -195.276 -195.669 -195.276 -195.276 -195.276 -195.276 -195.669 -195.276 -195.276 -195.276 -195.276 -195.276 -195.276 -195.276 -195.276 -195.276 -195.276 -195.276 -195.276 -390.945 -195.276 -195.276 -195.276 -195.276 -195.276 -195.276 -195.276 -390.551 -195.669 -195.276 -195.276 -195.276 -195.276 -195.276 -195.276 -390.551 -195.276 -195.276 -195.276 -390.945 -195.276 -195.276 -195.276 -195.276 -195.276 -390.551 -195.276 -195.276 -195.669 -390.551 -195.276 -195.669 -195.276 -390.551 -195.276 -390.551 -195.276 -195.276 -195.276 -390.551 -195.276 -390.551 -195.276 -390.551 -195.276 -586.22 -195.276 -390.551 -195.276 -585.827 -195.669 -781.496 -195.276 -976.378 0 -2343.7zm10937.8 -16796.9l-976.772 195.276 -976.378 195.276 -781.496 195.276 -585.827 195.276 -585.827 195.276 -586.22 195.276 -585.827 195.276 -390.551 195.669 -585.827 195.276 -390.551 195.276 -390.945 195.276 -390.551 195.276 -390.551 195.276 -390.551 195.276 -390.551 195.276 -195.669 195.276 -390.551 195.276 -390.551 195.276 -195.276 195.276 -390.551 195.669 -195.276 195.276 -390.551 195.276 -195.669 195.276 -195.276 195.276 -390.551 195.276 -195.276 195.276 -195.276 195.276 -195.276 195.276 -390.551 195.276 -195.276 195.669 -195.669 195.276 -195.276 195.276 -195.276 195.276 -195.276 195.276 -195.276 195.276 -195.276 195.276 -195.276 195.276 -195.276 195.276 -195.276 195.276 -195.276 195.276 -195.276 195.669 -195.669 195.276 -195.276 195.276 -195.276 195.276 -195.276 390.551 -195.276 195.276 -195.276 195.276 -195.276 195.276 -195.276 390.551 -195.276 195.669 -195.276 390.551 -195.276 195.276 -195.669 390.551 -195.276 195.276 -195.276 390.551 -195.276 195.276 -195.276 390.945 -195.276 390.551 -195.276 390.551 -195.276 390.551 -195.276 390.551 -195.276 390.945 -195.669 390.551 -195.276 390.551 -195.276 585.827 -195.276 390.551 -195.276 586.22 -195.276 585.827 -195.276 585.827 -195.276 781.496 -195.276 781.102 -195.276 976.378 -195.276 1367.32 0 6054.72 195.276 1367.32 195.276 976.378 195.276 976.772 195.276 585.827 195.276 781.102 195.276 586.22 195.276 390.551 195.276 585.827 195.276 585.827 195.276 390.551 195.669 390.945 195.276 390.551 195.276 390.551 195.276 390.551 195.276 390.551 195.276 390.945 195.276 195.276 195.276 390.551 195.276 390.551 195.276 195.276 195.669 390.551 0 390.945 -195.669 781.102 -195.276 585.827 -195.276 781.496 -195.276 781.102 -195.276 585.827 -195.276 781.496 -195.276 781.102 -195.276 585.827 -195.276 781.496 -195.276 781.102 -195.669 585.827 -195.276 781.496 0 390.551 390.945 0 781.102 -195.276 781.102 -195.276 781.496 -195.276 781.102 -195.276 585.827 -195.669 781.496 -195.276 781.102 -195.276 781.102 -195.276 781.496 -195.276 585.827 -195.276 781.496 -195.276 781.102 -195.276 195.276 0 390.551 195.276 195.276 195.276 390.551 195.276 390.945 195.276 390.551 195.276 390.551 195.276 390.551 195.276 390.551 195.669 390.945 195.276 390.551 195.276 585.827 195.276 390.551 195.276 586.22 195.276 585.827 195.276 585.827 195.276 781.102 195.276 781.496 195.276 976.378 195.276 1172.05 195.276 2538.98 195.669 1953.15 0 2343.7 -195.669 1172.05 -195.276 976.378 -195.276 781.496 -195.276 781.102 -195.276 585.827 -195.276 585.827 -195.276 586.22 -195.276 390.551 -195.276 585.827 -195.276 390.551 -195.276 390.945 -195.276 390.551 -195.669 390.551 -195.276 390.551 -195.276 390.551 -195.276 390.945 -195.276 195.276 -195.276 390.551 -195.276 195.276 -195.276 390.551 -195.276 390.551 -195.276 195.276 -195.669 195.669 -195.276 390.551 -195.276 195.276 -195.276 195.276 -195.276 390.551 -195.276 195.276 -195.276 195.276 -195.276 195.276 -195.276 195.276 -195.276 195.669 -195.276 390.551 -195.669 195.276 -195.276 195.276 -195.276 195.276 -195.276 195.276 -195.276 195.276 -195.276 195.276 -195.276 195.276 -195.276 195.276 -390.551 195.669 -195.276 195.276 -195.669 195.276 -195.276 195.276 -195.276 195.276 -390.551 195.276 -195.276 195.276 -195.276 195.276 -195.276 195.276 -390.551 195.276 -195.669 195.669 -390.551 195.276 -195.276 195.276 -390.551 195.276 -195.276 195.276 -390.551 195.276 -390.551 195.276 -195.669 195.276 -390.551 195.276 -390.551 195.276 -390.551 195.276 -390.551 195.276 -586.22 195.669 -390.551 195.276 -390.551 195.276 -585.827 195.276 -586.22 195.276 -585.827 195.276 -585.827 195.276 -781.102 195.276 -781.496 195.276 -1171.65 195.669 -1367.32 0 -5468.9 -195.669 -1562.2 -195.276 -976.772 -195.276 -781.102 -195.276 -781.496 -195.276 -781.102 -195.276 -585.827 -195.276 -586.22 -195.276 -390.551 -195.276 -585.827 -195.669 -390.551 -195.276 -390.551 -195.276 -390.945 -195.276 -390.551 -195.276 -390.551 -195.276 -390.551 -195.276 -390.551 -195.276 -390.945 -195.276 -195.276 -195.276 -390.551 -195.276 -195.276 -195.276 -390.551 -195.669 -195.276 -195.276 -390.551 -195.276 -195.669 -195.276 -195.276 -195.276 -390.551 -195.276 -195.276 -195.276 -195.276 -195.276 -195.276 -195.276 -390.551 -195.276 -195.276 -195.669 -195.276 -195.276 -195.669 -195.276 -195.276 -195.276 -195.276 -195.276 -195.276 -195.276 -195.276 -195.276 -195.276 -195.276 -195.276 -195.276 -195.276 -195.276 -195.276 -195.276 -195.276 -195.669 -195.276 -195.276 -195.669 -390.551 -195.276 -195.276 -195.276 -195.276 -195.276 -195.276 -195.276 -390.551 -195.276 -195.276 -195.276 -195.276 -195.276 -390.945 -195.276 -195.276 -195.276 -390.551 -195.669 -195.276 -195.276 -390.551 -195.276 -390.551 -195.276 -195.669 -195.276 -390.551 -195.276 -390.551 -195.276 -390.551 -195.276 -390.551 -195.276 -390.551 -195.276 -390.945 -195.276 -585.827 -195.276 -390.551 -195.669 -585.827 -195.276 -586.22 -195.276 -585.827 -195.276 -585.827 -195.276 -781.496 -195.276 -976.378 -195.276 -976.772 -195.276 -1757.48 -195.276 -4492.52 0 -1757.48 195.276z"/>
   </g>
  </g>
  <g id="_109985232">
   <g>
    <path id="_106771008" class="fil0" d="M-647697 -775204l195.276 -11914.2 195.669 -2148.43 195.276 -1171.65 195.276 -976.772 195.276 -781.102 195.276 -586.22 195.276 -585.827 195.276 -585.827 195.276 -390.551 195.276 -390.551 195.276 -390.945 195.276 -390.551 195.276 -390.551 195.669 -390.551 195.276 -195.276 195.276 -390.945 195.276 -195.276 195.276 -195.276 195.276 -390.551 195.276 -195.276 195.276 -195.276 195.276 -195.276 195.669 -195.276 195.276 -195.276 195.276 -195.276 195.276 -195.276 195.276 -195.669 195.276 -195.276 195.276 -195.276 195.276 -195.276 390.551 -195.276 195.276 -195.276 195.276 -195.276 390.945 -195.276 195.276 -195.276 390.551 -195.669 390.551 -195.276 390.551 -195.276 390.945 -195.276 390.551 -195.276 390.551 -195.276 585.827 -195.276 585.827 -195.276 586.22 -195.276 781.102 -195.276 976.772 -195.276 1171.65 -195.276 1953.15 -195.669 10937.4 -195.276 2734.65 0 10742.1 195.276 2148.43 195.669 1171.65 195.276 976.772 195.276 781.102 195.276 586.22 195.276 585.827 195.276 585.827 195.276 390.551 195.276 390.551 195.276 390.945 195.276 390.551 195.276 390.551 195.276 390.551 195.669 195.276 195.276 390.945 195.276 195.276 195.276 195.276 195.276 390.551 195.276 195.276 195.276 195.276 195.276 195.276 195.276 195.276 195.669 195.276 195.276 195.276 195.276 195.276 195.276 195.669 195.276 195.276 195.276 195.276 195.276 195.276 195.276 195.276 390.551 195.276 195.276 195.276 195.276 195.276 390.945 195.276 195.276 195.669 390.551 195.276 390.551 195.276 390.551 195.276 390.945 195.276 390.551 195.276 390.551 195.276 585.827 195.276 585.827 195.276 586.22 195.276 781.102 195.276 976.772 195.276 1171.65 195.669 2148.43 0 24218.9 -195.669 2148.43 -195.276 1171.65 -195.276 976.772 -195.276 781.102 -195.276 586.22 -195.276 585.827 -195.276 585.827 -195.276 390.551 -195.276 390.551 -195.276 390.945 -195.276 390.551 -195.276 390.551 -195.669 195.276 -195.276 390.551 -195.276 195.276 -195.276 390.945 -195.276 195.276 -195.276 195.276 -195.276 390.551 -195.276 195.276 -195.276 195.276 -195.669 195.276 -195.276 195.276 -195.276 195.276 -195.276 195.276 -195.276 195.669 -195.276 195.276 -195.276 195.276 -390.551 195.276 -195.276 195.276 -195.276 195.276 -390.945 195.276 -195.276 195.276 -390.551 195.276 -195.276 195.669 -390.551 195.276 -390.551 195.276 -390.945 195.276 -390.551 195.276 -390.551 195.276 -585.827 195.276 -585.827 195.276 -586.22 195.276 -781.102 195.276 -976.772 195.276 -1171.65 195.276 -2148.43 195.669 -10742.1 195.276 -2734.65 0 -10742.1 -195.276 -2148.43 -195.669 -1171.65 -195.276 -976.772 -195.276 -781.102 -195.276 -586.22 -195.276 -585.827 -195.276 -585.827 -195.276 -390.551 -195.276 -390.551 -195.276 -390.945 -195.276 -390.551 -195.276 -390.551 -195.276 -390.551 -195.669 -195.276 -195.276 -390.945 -195.276 -195.276 -195.276 -195.276 -195.276 -390.551 -195.276 -195.276 -195.276 -195.276 -195.276 -195.276 -195.276 -195.276 -195.669 -195.276 -195.276 -195.276 -195.276 -195.276 -195.276 -195.669 -195.276 -195.276 -195.276 -195.276 -195.276 -195.276 -195.276 -195.276 -390.551 -195.276 -195.276 -195.276 -195.276 -195.276 -390.945 -195.276 -195.276 -195.669 -390.551 -195.276 -390.551 -195.276 -390.551 -195.276 -390.945 -195.276 -390.551 -195.276 -390.551 -195.276 -585.827 -195.276 -585.827 -195.276 -586.22 -195.276 -781.102 -195.276 -976.772 -195.276 -1171.65 -195.669 -2148.43 -195.276 -11914.2 0 -390.551zm22265.7 -49609.4l-1562.6 195.276 -976.378 195.276 -1172.05 195.276 -976.378 195.669 -781.496 195.276 -781.102 195.276 -781.102 195.276 -586.22 195.276 -781.102 195.276 -585.827 195.276 -586.22 195.276 -585.827 195.276 -585.827 195.276 -585.827 195.276 -390.945 195.276 -585.827 195.669 -390.551 195.276 -585.827 195.276 -390.945 195.276 -390.551 195.276 -585.827 195.276 -390.551 195.276 -390.551 195.276 -390.945 195.276 -390.551 195.276 -390.551 195.669 -390.551 195.276 -390.551 195.276 -390.551 195.276 -195.669 195.276 -390.551 195.276 -390.551 195.276 -390.551 195.276 -195.276 195.276 -390.945 195.276 -390.551 195.276 -195.276 195.669 -390.551 195.276 -195.276 195.276 -390.551 195.276 -195.276 195.276 -390.551 195.276 -195.669 195.276 -390.551 195.276 -195.276 195.276 -390.551 195.276 -195.276 195.276 -195.276 195.669 -390.551 195.276 -195.669 195.276 -195.276 195.276 -390.551 195.276 -195.276 195.276 -195.276 195.276 -195.276 195.276 -390.551 195.276 -195.276 195.276 -195.276 195.669 -195.669 195.276 -195.276 195.276 -390.551 195.276 -195.276 195.276 -195.276 195.276 -195.276 195.276 -195.276 195.276 -195.276 195.276 -195.276 195.276 -195.276 195.276 -195.669 195.669 -195.276 195.276 -195.276 195.276 -195.276 195.276 -195.276 195.276 -195.276 195.276 -195.276 195.276 -195.276 195.276 -195.276 195.276 -195.276 195.276 -195.669 195.669 -195.276 195.276 -195.276 195.276 -195.276 195.276 -195.276 195.276 -195.276 195.276 -195.276 195.276 -195.276 195.276 -195.276 390.551 -195.276 195.276 -195.276 195.669 -195.669 195.276 -195.276 195.276 -195.276 390.551 -195.276 195.276 -195.276 195.276 -195.276 195.276 -195.276 390.551 -195.276 195.276 -195.276 195.669 -195.276 390.551 -195.669 195.276 -195.276 195.276 -195.276 390.551 -195.276 195.276 -195.276 390.551 -195.276 195.669 -195.276 390.551 -195.276 195.276 -195.276 390.551 -195.276 195.276 -195.276 390.551 -195.669 195.276 -195.276 390.551 -195.276 390.945 -195.276 195.276 -195.276 390.551 -195.276 390.551 -195.276 390.551 -195.276 195.669 -195.276 390.551 -195.276 390.551 -195.276 390.551 -195.669 390.551 -195.276 390.551 -195.276 390.945 -195.276 390.551 -195.276 390.551 -195.276 585.827 -195.276 390.551 -195.276 390.945 -195.276 585.827 -195.276 390.551 -195.669 585.827 -195.276 390.945 -195.276 585.827 -195.276 585.827 -195.276 585.827 -195.276 586.22 -195.276 585.827 -195.276 781.102 -195.276 586.22 -195.276 781.102 -195.276 781.102 -195.276 781.496 -195.669 976.378 -195.276 976.772 -195.276 1171.65 -195.276 1367.32 -195.276 1953.15 0 8984.25 195.276 1757.87 195.276 1562.6 195.276 1171.65 195.276 976.772 195.669 976.378 195.276 781.496 195.276 781.102 195.276 781.102 195.276 586.22 195.276 781.102 195.276 585.827 195.276 586.22 195.276 585.827 195.276 585.827 195.276 585.827 195.276 390.945 195.669 585.827 195.276 390.551 195.276 585.827 195.276 390.945 195.276 390.551 195.276 585.827 195.276 390.551 195.276 390.551 195.276 390.945 195.276 390.551 195.669 390.551 195.276 390.551 195.276 390.551 195.276 390.551 195.276 195.669 195.276 390.551 195.276 390.551 195.276 390.551 195.276 195.276 195.276 390.945 195.276 390.551 195.669 195.276 195.276 390.551 195.276 195.276 195.276 390.551 195.276 195.276 195.276 390.551 195.276 195.669 195.276 390.551 195.276 195.276 195.276 390.551 195.276 195.276 195.669 195.276 195.276 390.551 195.276 195.669 195.276 195.276 195.276 390.551 195.276 195.276 195.276 195.276 195.276 195.276 195.276 390.551 195.276 195.276 195.669 195.276 195.276 195.669 195.276 195.276 195.276 390.551 195.276 195.276 195.276 195.276 195.276 195.276 195.276 195.276 195.276 195.276 195.276 195.276 195.276 195.276 195.669 195.669 195.276 195.276 195.276 195.276 195.276 195.276 195.276 195.276 195.276 195.276 195.276 195.276 195.276 195.276 195.276 195.276 195.276 195.276 195.669 195.669 195.276 195.276 195.276 195.276 195.276 195.276 195.276 195.276 195.276 195.276 195.276 195.276 390.551 195.276 195.276 195.276 195.276 195.276 195.669 195.276 195.276 195.669 195.276 195.276 390.551 195.276 195.276 195.276 195.276 195.276 195.276 195.276 390.551 195.276 195.276 195.276 195.669 195.276 390.551 195.276 195.276 195.669 195.276 195.276 390.551 195.276 195.276 195.276 390.551 195.276 195.669 195.276 390.551 195.276 195.276 195.276 390.551 195.276 195.276 195.276 390.551 195.276 195.276 195.669 390.551 195.276 390.945 195.276 195.276 195.276 390.551 195.276 390.551 195.276 390.551 195.276 195.669 195.276 390.551 195.276 390.551 195.276 390.551 195.276 390.551 195.669 390.551 195.276 390.945 195.276 390.551 195.276 390.551 195.276 585.827 195.276 390.551 195.276 390.945 195.276 585.827 195.276 390.551 195.276 585.827 195.669 390.945 195.276 585.827 195.276 585.827 195.276 585.827 195.276 586.22 195.276 585.827 195.276 781.102 195.276 586.22 195.276 781.102 195.276 781.102 195.276 781.496 195.276 976.378 195.669 1172.05 195.276 976.378 195.276 1562.6 195.276 1757.87 195.276 8984.25 0 1757.87 -195.276 1562.6 -195.276 1171.65 -195.276 976.772 -195.276 976.378 -195.669 781.496 -195.276 781.102 -195.276 781.102 -195.276 586.22 -195.276 781.102 -195.276 585.827 -195.276 586.22 -195.276 585.827 -195.276 585.827 -195.276 585.827 -195.276 390.945 -195.276 585.827 -195.669 390.551 -195.276 585.827 -195.276 390.945 -195.276 390.551 -195.276 585.827 -195.276 390.551 -195.276 390.551 -195.276 390.945 -195.276 390.551 -195.276 390.551 -195.669 390.551 -195.276 390.551 -195.276 390.551 -195.276 195.669 -195.276 390.551 -195.276 390.551 -195.276 390.551 -195.276 195.276 -195.276 390.945 -195.276 390.551 -195.276 195.276 -195.669 390.551 -195.276 195.276 -195.276 390.551 -195.276 195.276 -195.276 390.551 -195.276 195.669 -195.276 390.551 -195.276 195.276 -195.276 390.551 -195.276 195.276 -195.276 195.276 -195.669 390.551 -195.276 195.669 -195.276 195.276 -195.276 390.551 -195.276 195.276 -195.276 195.276 -195.276 195.276 -195.276 390.551 -195.276 195.276 -195.276 195.276 -195.669 195.669 -195.276 195.276 -195.276 195.276 -195.276 390.551 -195.276 195.276 -195.276 195.276 -195.276 195.276 -195.276 195.276 -195.276 195.276 -195.276 195.276 -195.276 195.669 -195.669 195.276 -195.276 195.276 -195.276 195.276 -195.276 195.276 -195.276 195.276 -195.276 195.276 -195.276 195.276 -195.276 195.276 -195.276 195.276 -195.276 195.669 -195.669 195.276 -195.276 195.276 -195.276 195.276 -195.276 195.276 -195.276 195.276 -195.276 195.276 -195.276 195.276 -390.551 195.276 -195.276 195.276 -195.276 195.276 -195.669 195.669 -195.276 195.276 -195.276 195.276 -390.551 195.276 -195.276 195.276 -195.276 195.276 -195.276 195.276 -390.551 195.276 -195.276 195.276 -195.669 195.276 -390.551 195.669 -195.276 195.276 -195.276 195.276 -390.551 195.276 -195.276 195.276 -390.551 195.276 -195.669 195.276 -390.551 195.276 -195.276 195.276 -390.551 195.276 -195.276 195.276 -390.551 195.669 -195.276 195.276 -390.551 195.276 -390.945 195.276 -195.276 195.276 -390.551 195.276 -390.551 195.276 -390.551 195.276 -195.669 195.276 -390.551 195.276 -390.551 195.276 -390.551 195.669 -390.551 195.276 -390.551 195.276 -390.945 195.276 -390.551 195.276 -390.551 195.276 -585.827 195.276 -390.551 195.276 -390.945 195.276 -585.827 195.276 -390.551 195.669 -585.827 195.276 -390.945 195.276 -585.827 195.276 -585.827 195.276 -585.827 195.276 -586.22 195.276 -585.827 195.276 -781.102 195.276 -586.22 195.276 -781.102 195.276 -781.102 195.276 -781.496 195.669 -976.378 195.276 -976.772 195.276 -1171.65 195.276 -1562.6 195.276 -1757.87 0 -8984.25 -195.276 -1757.87 -195.276 -1562.6 -195.276 -1171.65 -195.276 -976.772 -195.669 -976.378 -195.276 -781.496 -195.276 -781.102 -195.276 -781.102 -195.276 -586.22 -195.276 -781.102 -195.276 -585.827 -195.276 -586.22 -195.276 -585.827 -195.276 -585.827 -195.276 -585.827 -195.276 -390.945 -195.669 -585.827 -195.276 -390.551 -195.276 -585.827 -195.276 -390.945 -195.276 -390.551 -195.276 -585.827 -195.276 -390.551 -195.276 -390.551 -195.276 -390.945 -195.276 -390.551 -195.669 -390.551 -195.276 -390.551 -195.276 -390.551 -195.276 -390.551 -195.276 -195.669 -195.276 -390.551 -195.276 -390.551 -195.276 -390.551 -195.276 -195.276 -195.276 -390.945 -195.276 -390.551 -195.669 -195.276 -195.276 -390.551 -195.276 -195.276 -195.276 -390.551 -195.276 -195.276 -195.276 -390.551 -195.276 -195.669 -195.276 -390.551 -195.276 -195.276 -195.276 -390.551 -195.276 -195.276 -195.669 -195.276 -195.276 -390.551 -195.276 -195.669 -195.276 -195.276 -195.276 -390.551 -195.276 -195.276 -195.276 -195.276 -195.276 -195.276 -195.276 -390.551 -195.276 -195.276 -195.669 -195.276 -195.276 -195.669 -195.276 -195.276 -195.276 -195.276 -195.276 -390.551 -195.276 -195.276 -195.276 -195.276 -195.276 -195.276 -195.276 -195.276 -195.276 -195.276 -195.276 -195.276 -195.669 -195.669 -195.276 -195.276 -195.276 -195.276 -195.276 -195.276 -195.276 -195.276 -195.276 -195.276 -195.276 -195.276 -195.276 -195.276 -195.276 -195.276 -195.276 -195.276 -195.669 -195.669 -195.276 -195.276 -195.276 -195.276 -195.276 -195.276 -195.276 -195.276 -195.276 -195.276 -195.276 -195.276 -195.276 -195.276 -390.551 -195.276 -195.276 -195.276 -195.669 -195.276 -195.276 -195.669 -195.276 -195.276 -390.551 -195.276 -195.276 -195.276 -195.276 -195.276 -195.276 -195.276 -390.551 -195.276 -195.276 -195.276 -195.669 -195.276 -390.551 -195.276 -195.276 -195.669 -195.276 -195.276 -390.551 -195.276 -195.276 -195.276 -390.551 -195.276 -195.669 -195.276 -390.551 -195.276 -195.276 -195.276 -390.551 -195.276 -195.276 -195.276 -390.551 -195.276 -195.276 -195.669 -390.551 -195.276 -390.945 -195.276 -195.276 -195.276 -390.551 -195.276 -390.551 -195.276 -390.551 -195.276 -195.669 -195.276 -390.551 -195.276 -390.551 -195.276 -390.551 -195.276 -390.551 -195.669 -390.551 -195.276 -390.945 -195.276 -390.551 -195.276 -390.551 -195.276 -585.827 -195.276 -390.551 -195.276 -390.945 -195.276 -585.827 -195.276 -390.551 -195.276 -585.827 -195.669 -390.945 -195.276 -585.827 -195.276 -585.827 -195.276 -585.827 -195.276 -586.22 -195.276 -585.827 -195.276 -781.102 -195.276 -586.22 -195.276 -781.102 -195.276 -781.102 -195.276 -781.496 -195.276 -976.378 -195.669 -976.772 -195.276 -1171.65 -195.276 -1562.6 -195.276 -1757.87 -195.276 -8984.25 0 -1757.87 195.276z"/>
    <path id="_106770792" class="fil0" d="M-633634 -776571l195.276 -1366.93 195.276 -781.496 195.276 -585.827 195.276 -585.827 195.669 -586.22 195.276 -390.551 195.276 -390.551 195.276 -390.551 195.276 -390.551 195.276 -390.945 195.276 -390.551 195.276 -195.276 195.276 -390.551 195.276 -195.276 195.276 -195.276 195.669 -390.551 195.276 -195.276 195.276 -195.669 195.276 -195.276 195.276 -195.276 195.276 -195.276 195.276 -195.276 195.276 -195.276 195.276 -195.276 195.276 -195.276 195.669 -195.276 195.276 -195.276 390.551 -195.669 195.276 -195.276 195.276 -195.276 390.551 -195.276 195.276 -195.276 390.551 -195.276 390.945 -195.276 390.551 -195.276 390.551 -195.276 390.551 -195.276 390.551 -195.276 586.22 -195.669 585.827 -195.276 585.827 -195.276 781.496 -195.276 1366.93 -195.276 3125.2 0 1366.93 195.276 781.496 195.276 585.827 195.276 585.827 195.276 586.22 195.669 390.551 195.276 390.551 195.276 390.551 195.276 390.551 195.276 390.945 195.276 390.551 195.276 195.276 195.276 390.551 195.276 195.276 195.276 195.276 195.276 390.551 195.669 195.276 195.276 195.669 195.276 195.276 195.276 195.276 195.276 195.276 195.276 195.276 195.276 195.276 195.276 195.276 195.276 195.276 195.276 195.276 195.669 195.276 195.276 195.669 390.551 195.276 195.276 195.276 195.276 195.276 390.551 195.276 195.276 195.276 390.551 195.276 390.945 195.276 390.551 195.276 390.551 195.276 390.551 195.276 390.551 195.669 586.22 195.276 585.827 195.276 585.827 195.276 781.496 195.276 1366.93 0 3125.2 -195.276 1366.93 -195.276 781.496 -195.276 585.827 -195.276 585.827 -195.669 586.22 -195.276 390.551 -195.276 390.551 -195.276 390.551 -195.276 390.551 -195.276 390.945 -195.276 390.551 -195.276 195.276 -195.276 390.551 -195.276 195.276 -195.276 195.276 -195.669 390.551 -195.276 195.276 -195.276 195.669 -195.276 195.276 -195.276 195.276 -195.276 195.276 -195.276 195.276 -195.276 195.276 -195.276 195.276 -195.276 195.276 -195.669 195.276 -195.276 195.276 -390.551 195.669 -195.276 195.276 -195.276 195.276 -390.551 195.276 -195.276 195.276 -390.551 195.276 -390.945 195.276 -390.551 195.276 -390.551 195.276 -390.551 195.276 -390.551 195.276 -586.22 195.669 -585.827 195.276 -585.827 195.276 -781.496 195.276 -1366.93 195.276 -3125.2 0 -1366.93 -195.276 -781.496 -195.276 -585.827 -195.276 -585.827 -195.276 -586.22 -195.669 -390.551 -195.276 -390.551 -195.276 -390.551 -195.276 -390.551 -195.276 -390.945 -195.276 -390.551 -195.276 -195.276 -195.276 -390.551 -195.276 -195.276 -195.276 -195.276 -195.276 -390.551 -195.669 -195.276 -195.276 -195.669 -195.276 -195.276 -195.276 -195.276 -195.276 -195.276 -195.276 -195.276 -195.276 -195.276 -195.276 -195.276 -195.276 -195.276 -195.276 -195.276 -195.669 -195.276 -195.276 -195.669 -390.551 -195.276 -195.276 -195.276 -195.276 -195.276 -390.551 -195.276 -195.276 -195.276 -390.551 -195.276 -390.945 -195.276 -390.551 -195.276 -390.551 -195.276 -390.551 -195.276 -390.551 -195.669 -586.22 -195.276 -585.827 -195.276 -585.827 -195.276 -781.496 -195.276 -1366.93 0 -3125.2zm32812.6 -12695.3l-195.276 390.551 -195.276 390.945 -195.276 195.276 0 390.551 -390.945 0 -195.276 195.276 -195.276 195.276 -585.827 195.276 -585.827 195.276 -976.772 0 -585.827 -195.276 -585.827 -195.276 -195.669 -195.276 -195.276 -195.276 -390.551 0 0 -390.551 -195.276 -195.276 -195.276 -195.669 -195.276 -585.827 -195.276 -585.827 0 -781.496 195.276 -781.102 195.276 -585.827 195.276 -195.276 195.276 -195.276 0 -390.945 390.551 0 195.276 -195.276 195.669 -195.276 585.827 -195.276 781.102 -195.276 586.22 0 781.102 195.276 390.551 195.276 390.551 195.276 195.276 195.276 195.276 195.669 195.669 195.276 195.276 195.276 195.276 390.551 195.276 390.551 195.276 781.102 0 586.22 -195.276 781.102zm-31640.6 -9179.53l-1367.32 195.276 -781.102 195.276 -781.496 195.276 -585.827 195.276 -390.551 195.276 -586.22 195.276 -390.551 195.276 -195.276 195.276 -390.551 195.669 -390.551 195.276 -195.276 195.276 -195.276 195.276 -195.276 195.276 -390.945 195.276 -195.276 195.276 -195.276 195.276 -195.276 195.276 -195.276 390.945 -195.276 195.276 -195.276 195.276 -195.276 195.276 -195.276 390.551 -195.669 195.276 -195.276 390.551 -195.276 390.551 -195.276 586.22 -195.276 390.551 -195.276 585.827 -195.276 781.496 -195.276 781.102 -195.276 1367.32 -195.276 3124.8 0 20312.6 195.276 3124.8 195.276 1367.32 195.276 781.102 195.276 781.496 195.276 585.827 195.276 390.551 195.276 586.22 195.276 390.551 195.276 195.276 195.669 390.551 195.276 390.551 195.276 195.276 195.276 195.276 195.276 195.276 195.276 390.945 195.276 195.276 195.276 195.276 195.276 195.276 390.945 195.276 195.276 195.276 195.276 195.276 195.276 195.276 390.551 195.276 390.551 195.669 195.276 195.276 390.551 195.276 586.22 195.276 390.551 195.276 585.827 195.276 781.496 195.276 781.102 195.276 1367.32 195.276 3320.08 195.276 19922 0 3320.08 -195.276 1367.32 -195.276 781.102 -195.276 781.496 -195.276 585.827 -195.276 390.551 -195.276 586.22 -195.276 390.551 -195.276 195.276 -195.276 390.551 -195.669 195.276 -195.276 390.551 -195.276 195.276 -195.276 195.276 -195.276 195.669 -195.276 390.551 -195.276 195.276 -195.276 195.276 -390.551 195.276 -195.669 195.276 -195.276 195.276 -195.276 195.276 -390.551 195.276 -195.276 195.669 -390.551 195.276 -195.276 195.276 -390.551 195.276 -586.22 195.276 -390.551 195.276 -585.827 195.276 -781.496 195.276 -781.102 195.276 -1367.32 195.276 -3320.08 0 -19922 -195.276 -3320.08 -195.276 -1367.32 -195.276 -781.102 -195.276 -781.496 -195.276 -585.827 -195.276 -390.551 -195.276 -586.22 -195.276 -390.551 -195.276 -390.551 -195.669 -195.276 -195.276 -390.551 -195.276 -195.276 -195.276 -195.276 -195.276 -195.276 -195.276 -390.945 -195.276 -195.276 -195.276 -195.276 -195.276 -195.276 -390.945 -195.276 -195.276 -195.276 -195.276 -195.276 -195.276 -195.276 -390.551 -195.276 -195.276 -195.669 -390.551 -195.276 -390.551 -195.276 -586.22 -195.276 -390.551 -195.276 -585.827 -195.276 -781.496 -195.276 -781.102 -195.276 -1367.32 -195.276 -3320.08 -195.276 -19922 0 -3320.08 195.276z"/>
    <polygon id="_106771080" class="fil0" points="-621915,-784383 -622502,-784188 -623087,-783993 -623478,-783797 -623869,-783602 -624259,-783407 -624455,-783211 -624845,-783016 -625041,-782821 -625236,-782626 -625626,-782430 -625822,-782235 -626017,-782039 -626212,-781844 -626407,-781649 -626603,-781454 -626798,-781063 -626994,-780868 -627189,-780672 -627384,-780282 -627580,-780086 -627775,-779696 -627970,-779305 -628165,-778915 -628361,-778329 -628556,-777743 -628752,-776961 -628752,-773055 -628556,-772274 -628361,-771688 -628165,-771102 -627970,-770711 -627775,-770321 -627580,-769930 -627384,-769735 -627189,-769344 -626994,-769149 -626798,-768954 -626603,-768758 -626407,-768368 -626212,-768172 -626017,-767977 -625822,-767782 -625431,-767586 -625236,-767391 -625041,-767196 -624845,-767000 -624455,-766805 -624259,-766610 -623869,-766415 -623478,-766219 -623087,-766024 -622502,-765829 -621915,-765633 -621134,-765438 -617228,-765438 -616447,-765633 -615861,-765829 -615275,-766024 -614884,-766219 -614494,-766415 -614103,-766610 -613907,-766805 -613517,-767000 -613322,-767196 -613126,-767391 -612931,-767586 -612541,-767782 -612345,-767977 -612150,-768172 -611955,-768368 -611759,-768758 -611564,-768954 -611369,-769149 -611173,-769344 -610978,-769735 -610783,-769930 -610587,-770321 -610392,-770711 -610197,-771102 -610002,-771688 -609806,-772274 -609611,-773055 -609611,-776961 -609806,-777743 -610002,-778329 -610197,-778915 -610392,-779305 -610587,-779696 -610783,-780086 -610978,-780282 -611173,-780672 -611369,-780868 -611564,-781063 -611759,-781258 -611955,-781649 -612150,-781844 -612345,-782039 -612541,-782235 -612931,-782430 -613126,-782626 -613322,-782821 -613517,-783016 -613907,-783211 -614103,-783407 -614494,-783602 -614884,-783797 -615275,-783993 -615861,-784188 -616447,-784383 -617228,-784579 -621134,-784579 "/>
   </g>
  </g>
  <polygon class="fil0" points="48750,5195.28 47187.4,5390.55 46211,5585.83 45039,5781.1 44062.6,5976.77 43281.1,6172.05 42500,6367.32 41718.9,6562.6 41132.7,6757.87 40351.6,6953.15 39765.7,7148.43 39179.5,7343.7 38593.7,7538.98 38007.9,7734.25 37422,7929.53 37031.1,8124.8 36445.3,8320.47 36054.7,8515.75 35468.9,8711.02 35078,8906.3 34687.4,9101.57 34101.6,9296.85 33711,9492.13 33320.5,9687.4 32929.5,9882.68 32539,10078 32148.4,10273.2 31757.9,10468.9 31367.3,10664.2 30976.8,10859.4 30781.1,11054.7 30390.6,11250 30000,11445.3 29609.4,11640.6 29414.2,11835.8 29023.2,12031.1 28632.7,12226.8 28437.4,12422 28046.9,12617.3 27851.6,12812.6 27461,13007.9 27265.7,13203.1 26874.8,13398.4 26679.5,13593.7 26289,13789 26093.7,13984.3 25703.1,14179.5 25507.9,14374.8 25312.6,14570.5 24922,14765.7 24726.8,14961 24531.1,15156.3 24140.6,15351.6 23945.3,15546.9 23750,15742.1 23554.7,15937.4 23164.2,16132.7 22968.9,16328 22773.2,16523.2 22578,16718.9 22382.7,16914.2 21992.1,17109.4 21796.9,17304.7 21601.6,17500 21406.3,17695.3 21211,17890.6 21015.7,18085.8 20820.5,18281.1 20624.8,18476.8 20429.5,18672 20234.3,18867.3 20039,19062.6 19843.7,19257.9 19648.4,19453.1 19453.1,19648.4 19257.9,19843.7 19062.6,20039 18867.3,20234.3 18672,20429.5 18476.8,20624.8 18281.1,20820.5 18085.8,21015.7 17890.6,21211 17695.3,21406.3 17500,21601.6 17304.7,21796.9 17109.4,21992.1 16914.2,22382.7 16718.9,22578 16523.2,22773.2 16328,22968.9 16132.7,23164.2 15937.4,23554.7 15742.1,23750 15546.9,23945.3 15351.6,24140.6 15156.3,24531.1 14961,24726.8 14765.7,24922 14570.5,25312.6 14374.8,25507.9 14179.5,25703.1 13984.3,26093.7 13789,26289 13593.7,26679.5 13398.4,26874.8 13203.1,27265.7 13007.9,27461 12812.6,27851.6 12617.3,28046.9 12422,28437.4 12226.8,28632.7 12031.1,29023.2 11835.8,29414.2 11640.6,29609.4 11445.3,30000 11250,30390.6 11054.7,30781.1 10859.4,30976.8 10664.2,31367.3 10468.9,31757.9 10273.2,32148.4 10078,32539 9882.68,32929.5 9687.4,33320.5 9492.13,33711 9296.85,34101.6 9101.57,34687.4 8906.3,35078 8711.02,35468.9 8515.75,36054.7 8320.47,36445.3 8124.8,37031.1 7929.53,37422 7734.25,38007.9 7538.98,38593.7 7343.7,39179.5 7148.43,39765.7 6953.15,40351.6 6757.87,41132.7 6562.6,41718.9 6367.32,42500 6172.05,43281.1 5976.77,44062.6 5781.1,45039 5585.83,46015.7 5390.55,47187.4 5195.28,48554.7 5000,50507.9 5000,59492.1 5195.28,61250 5390.55,62812.6 5585.83,63984.3 5781.1,64961 5976.77,65937.4 6172.05,66718.9 6367.32,67500 6562.6,68281.1 6757.87,68867.3 6953.15,69648.4 7148.43,70234.3 7343.7,70820.5 7538.98,71406.3 7734.25,71992.1 7929.53,72578 8124.8,72968.9 8320.47,73554.7 8515.75,73945.3 8711.02,74531.1 8906.3,74922 9101.57,75312.6 9296.85,75898.4 9492.13,76289 9687.4,76679.5 9882.68,77070.5 10078,77461 10273.2,77851.6 10468.9,78242.1 10664.2,78632.7 10859.4,79023.2 11054.7,79218.9 11250,79609.4 11445.3,80000 11640.6,80390.6 11835.8,80585.8 12031.1,80976.8 12226.8,81367.3 12422,81562.6 12617.3,81953.1 12812.6,82148.4 13007.9,82539 13203.1,82734.3 13398.4,83125.2 13593.7,83320.5 13789,83711 13984.3,83906.3 14179.5,84296.9 14374.8,84492.1 14570.5,84687.4 14765.7,85078 14961,85273.2 15156.3,85468.9 15351.6,85859.4 15546.9,86054.7 15742.1,86250 15937.4,86445.3 16132.7,86835.8 16328,87031.1 16523.2,87226.8 16718.9,87422 16914.2,87617.3 17109.4,88007.9 17304.7,88203.1 17500,88398.4 17695.3,88593.7 17890.6,88789 18085.8,88984.3 18281.1,89179.5 18476.8,89375.2 18672,89570.5 18867.3,89765.7 19062.6,89961 19257.9,90156.3 19453.1,90351.6 19648.4,90546.9 19843.7,90742.1 20039,90937.4 20234.3,91132.7 20429.5,91328 20624.8,91523.2 20820.5,91718.9 21015.7,91914.2 21211,92109.4 21406.3,92304.7 21601.6,92500 21796.9,92695.3 21992.1,92890.6 22382.7,93085.8 22578,93281.1 22773.2,93476.8 22968.9,93672 23164.2,93867.3 23554.7,94062.6 23750,94257.9 23945.3,94453.1 24140.6,94648.4 24531.1,94843.7 24726.8,95039 24922,95234.3 25312.6,95429.5 25507.9,95625.2 25703.1,95820.5 26093.7,96015.7 26289,96211 26679.5,96406.3 26874.8,96601.6 27265.7,96796.9 27461,96992.1 27851.6,97187.4 28046.9,97382.7 28437.4,97578 28632.7,97773.2 29023.2,97968.9 29414.2,98164.2 29609.4,98359.4 30000,98554.7 30390.6,98750 30781.1,98945.3 30976.8,99140.6 31367.3,99335.8 31757.9,99531.1 32148.4,99726.8 32539,99922 32929.5,100117 33320.5,100313 33711,100508 34296.9,100703 34687.4,100898 35078,101094 35468.9,101289 36054.7,101484 36445.3,101680 37031.1,101875 37422,102070 38007.9,102266 38593.7,102461 39179.5,102656 39765.7,102852 40351.6,103047 41132.7,103242 41718.9,103437 42500,103633 43281.1,103828 44062.6,104023 45039,104219 46211,104414 47187.4,104609 48750,104805 50507.9,105000 55976.8,105000 55976.8,65937.4 45234.3,65937.4 45234.3,53632.7 55976.8,53632.7 56172,42304.7 56367.3,40742.1 56562.6,39570.5 56757.9,38789 56953.1,38203.1 57148.4,37617.3 57343.7,37031.1 57539,36640.6 57734.3,36250 57929.5,35664.2 58125.2,35468.9 58320.5,35078 58515.7,34687.4 58711,34296.9 58906.3,34101.6 59101.6,33906.3 59296.9,33515.7 59492.1,33320.5 59687.4,33124.8 59882.7,32929.5 60078,32539 60273.2,32343.7 60468.9,32148.4 60664.2,31953.1 61054.7,31757.9 61250,31562.6 61445.3,31367.3 61640.6,31172 62031.1,30976.8 62226.8,30781.1 62422,30585.8 62812.6,30390.6 63203.1,30195.3 63398.4,30000 63789,29804.7 64179.5,29609.4 64765.7,29414.2 65156.3,29218.9 65742.1,29023.2 66328,28828 66914.2,28632.7 67890.6,28437.4 68867.3,28242.1 71015.7,28046.9 73359.4,28046.9 78437.4,28242.1 80781.1,28437.4 81562.6,28437.4 81562.6,39374.8 73554.7,39374.8 72382.7,39570.5 71796.9,39765.7 71211,39961 70820.5,40156.3 70625.2,40351.6 70234.3,40546.9 70039,40742.1 69843.7,40937.4 69648.4,41328 69453.1,41523.2 69257.9,41914.2 69062.6,42304.7 68867.3,42890.6 68672,44062.6 68672,53632.7 80976.8,53828 80781.1,55195.3 80585.8,56757.9 80390.6,58320.5 80195.3,59882.7 80000,61250 79804.7,62812.6 79609.4,64375.2 79609.4,65937.4 68672,65937.4 68672,103242 68867.3,103242 69648.4,103047 70234.3,102852 70820.5,102656 71406.3,102461 71992.1,102266 72578,102070 72968.9,101875 73554.7,101680 73945.3,101484 74531.1,101289 74922,101094 75312.6,100898 75703.1,100703 76289,100508 76679.5,100313 77070.5,100117 77461,99922 77851.6,99726.8 78242.1,99531.1 78632.7,99335.8 78828,99140.6 79218.9,98945.3 79609.4,98750 80000,98554.7 80390.6,98359.4 80585.8,98164.2 80976.8,97968.9 81367.3,97773.2 81562.6,97578 81953.1,97382.7 82148.4,97187.4 82539,96992.1 82734.3,96796.9 83125.2,96601.6 83320.5,96406.3 83711,96211 83906.3,96015.7 84296.9,95820.5 84492.1,95625.2 84687.4,95429.5 85078,95234.3 85273.2,95039 85468.9,94843.7 85859.4,94648.4 86054.7,94453.1 86250,94257.9 86445.3,94062.6 86835.8,93867.3 87031.1,93672 87226.8,93476.8 87422,93281.1 87617.3,93085.8 88007.9,92890.6 88203.1,92695.3 88398.4,92500 88593.7,92304.7 88789,92109.4 88984.3,91914.2 89179.5,91718.9 89375.2,91523.2 89570.5,91328 89765.7,91132.7 89961,90937.4 90156.3,90742.1 90351.6,90546.9 90546.9,90351.6 90742.1,90156.3 90937.4,89961 91132.7,89765.7 91328,89570.5 91523.2,89375.2 91718.9,89179.5 91914.2,88984.3 92109.4,88789 92304.7,88593.7 92500,88398.4 92695.3,88203.1 92890.6,88007.9 93085.8,87617.3 93281.1,87422 93476.8,87226.8 93672,87031.1 93867.3,86835.8 94062.6,86445.3 94257.9,86250 94453.1,86054.7 94648.4,85859.4 94843.7,85468.9 95039,85273.2 95234.3,85078 95429.5,84687.4 95625.2,84492.1 95820.5,84296.9 96015.7,83906.3 96211,83711 96406.3,83320.5 96601.6,83125.2 96796.9,82734.3 96992.1,82539 97187.4,82148.4 97382.7,81953.1 97578,81562.6 97773.2,81367.3 97968.9,80976.8 98164.2,80585.8 98359.4,80390.6 98554.7,80000 98750,79609.4 98945.3,79218.9 99140.6,79023.2 99335.8,78632.7 99531.1,78242.1 99726.8,77851.6 99922,77461 100117,77070.5 100313,76679.5 100508,76289 100703,75703.1 100898,75312.6 101094,74922 101289,74531.1 101484,73945.3 101680,73554.7 101875,72968.9 102070,72578 102266,71992.1 102461,71406.3 102656,70820.5 102852,70234.3 103047,69648.4 103242,68867.3 103437,68281.1 103633,67500 103828,66718.9 104023,65937.4 104219,64961 104414,63789 104609,62617.3 104805,61250 105000,59492.1 105000,50507.9 104805,48750 104609,47187.4 104414,46015.7 104219,45039 104023,44062.6 103828,43281.1 103633,42500 103437,41718.9 103242,41132.7 103047,40351.6 102852,39765.7 102656,39179.5 102461,38593.7 102266,38007.9 102070,37422 101875,37031.1 101680,36445.3 101484,36054.7 101289,35468.9 101094,35078 100898,34687.4 100703,34296.9 100508,33711 100313,33320.5 100117,32929.5 99922,32539 99726.8,32148.4 99531.1,31757.9 99335.8,31367.3 99140.6,30976.8 98945.3,30781.1 98750,30390.6 98554.7,30000 98359.4,29609.4 98164.2,29414.2 97968.9,29023.2 97773.2,28632.7 97578,28437.4 97382.7,28046.9 97187.4,27851.6 96992.1,27461 96796.9,27265.7 96601.6,26874.8 96406.3,26679.5 96211,26289 96015.7,26093.7 95820.5,25703.1 95625.2,25507.9 95429.5,25312.6 95234.3,24922 95039,24726.8 94843.7,24531.1 94648.4,24140.6 94453.1,23945.3 94257.9,23750 94062.6,23554.7 93867.3,23164.2 93672,22968.9 93476.8,22773.2 93281.1,22578 93085.8,22382.7 92890.6,21992.1 92695.3,21796.9 92500,21601.6 92304.7,21406.3 92109.4,21211 91914.2,21015.7 91718.9,20820.5 91523.2,20624.8 91328,20429.5 91132.7,20234.3 90937.4,20039 90742.1,19843.7 90546.9,19648.4 90351.6,19453.1 90156.3,19257.9 89961,19062.6 89765.7,18867.3 89570.5,18672 89375.2,18476.8 89179.5,18281.1 88984.3,18085.8 88789,17890.6 88593.7,17695.3 88398.4,17500 88203.1,17304.7 88007.9,17109.4 87617.3,16914.2 87422,16718.9 87226.8,16523.2 87031.1,16328 86835.8,16132.7 86445.3,15937.4 86250,15742.1 86054.7,15546.9 85859.4,15351.6 85468.9,15156.3 85273.2,14961 85078,14765.7 84687.4,14570.5 84492.1,14374.8 84296.9,14179.5 83906.3,13984.3 83711,13789 83320.5,13593.7 83125.2,13398.4 82734.3,13203.1 82539,13007.9 82148.4,12812.6 81953.1,12617.3 81562.6,12422 81367.3,12226.8 80976.8,12031.1 80585.8,11835.8 80390.6,11640.6 80000,11445.3 79609.4,11250 79218.9,11054.7 79023.2,10859.4 78632.7,10664.2 78242.1,10468.9 77851.6,10273.2 77461,10078 77070.5,9882.68 76679.5,9687.4 76289,9492.13 75898.4,9296.85 75312.6,9101.57 74922,8906.3 74531.1,8711.02 73945.3,8515.75 73554.7,8320.47 72968.9,8124.8 72578,7929.53 71992.1,7734.25 71406.3,7538.98 70820.5,7343.7 70234.3,7148.43 69648.4,6953.15 68867.3,6757.87 68281.1,6562.6 67500,6367.32 66718.9,6172.05 65937.4,5976.77 64961,5781.1 63984.3,5585.83 62812.6,5390.55 61250,5195.28 59492.1,5000 50507.9,5000 "/>
  <path class="fil0" d="M-586690 -667629l-195.276 585.827 -195.276 390.945 -195.669 195.276 -195.276 390.551 -195.276 195.276 -195.276 390.551 -195.276 195.276 -195.276 195.276 -195.276 390.945 -195.276 195.276 -195.276 195.276 -195.669 195.276 -195.276 195.276 -195.276 195.276 -195.276 195.276 -390.551 195.276 -195.276 195.276 -195.276 195.276 -390.551 195.276 -195.276 195.669 -195.276 195.276 0 195.276 781.102 0 1171.65 -195.276 781.496 -195.276 781.102 -195.669 781.496 -195.276 585.827 -195.276 585.827 -195.276 390.551 -195.276 195.276 0 -195.276 195.276 -195.276 390.551 -195.276 195.276 -195.276 195.669 -195.276 195.276 -195.276 390.551 -195.276 195.276 -195.276 195.276 -195.276 195.276 -195.276 195.276 -195.669 195.276 -195.276 195.276 -195.276 195.669 -195.276 195.276 -195.276 195.276 -195.276 195.276 -195.276 195.276 -195.276 195.276 -195.276 195.276 -390.945 195.276 -195.276 195.276 -195.276 195.276 -195.276 195.276 -390.551 195.669 -195.276 195.276 0 1171.65 0 781.496 -195.276 3124.8 -195.276 1367.32 -195.276 1171.65 -195.276 976.772 -195.669 781.102 -195.276 781.102 -195.276 586.22 -195.276 585.827 -195.276 585.827 -195.276 586.22 -195.276 585.827 -195.276 390.551 -195.276 585.827 -195.276 390.945 -195.669 585.827 -195.276 390.551 -195.276 390.551 -195.276 390.551 -195.276 390.945 -195.276 390.551 -195.276 390.551 -195.276 390.551 -195.276 195.276 -195.276 390.551 -195.276 390.945 -195.669 195.276 -195.276 390.551 -195.276 390.551 -195.276 195.276 -195.276 390.551 -195.276 195.276 -195.276 195.669 -195.276 390.551 -195.276 195.276 -195.276 390.551 -195.276 195.276 -195.669 195.276 -195.276 195.276 -195.276 390.945 -195.276 195.276 -195.276 195.276 -195.276 195.276 -195.276 195.276 -195.276 390.551 -195.276 195.276 -195.276 195.276 -195.669 195.276 -195.276 195.276 -195.276 195.669 -195.276 195.276 -195.276 195.276 -195.276 195.276 -195.276 195.276 -195.276 195.276 -195.276 195.276 -390.551 195.276 -195.669 195.276 -195.276 195.276 -195.276 195.669 -195.276 195.276 -195.276 195.276 -390.551 195.276 -195.276 195.276 -195.276 195.276 -390.945 195.276 -195.276 195.276 -195.276 195.276 -390.551 195.276 -195.276 195.276 -390.551 195.669 -195.276 195.276 -390.551 195.276 -390.945 195.276 -195.276 195.276 -390.551 195.276 -390.551 195.276 -390.551 195.276 -195.276 195.276 -390.945 195.276 -390.551 195.276 -390.551 195.669 -585.827 195.276 -390.551 195.276 -390.945 195.276 -585.827 195.276 -585.827 195.276 -390.551 195.276 -586.22 195.276 -585.827 195.276 -781.102 195.276 -781.496 195.669 -781.102 195.276 -976.378 195.276 -976.772 195.276 -1367.32 195.276 -2148.43 195.276 -4296.85 0 -1953.15 -195.276 -1366.93 -195.276 -976.772 -195.276 -976.378 -195.276 -781.496 -195.276 -585.827 -195.669 -781.102 -195.276 -586.22 -195.276 -585.827 -195.276 -585.827 -195.276 -390.551 -195.276 -586.22 -195.276 -390.551 -195.276 -390.551 -195.276 -585.827 -195.276 -390.551 -195.669 -390.945 -195.276 -390.551 -195.276 -390.551 -195.276 -390.551 -195.276 -195.276 -195.276 -390.945 -195.276 -390.551 -195.276 -390.551 -195.276 4882.68 0 1367.32 -195.276 976.772 -195.276 781.102 -195.669 781.102 -195.276 586.22 -195.276 585.827 -195.276 390.551 -195.276 585.827 -195.276 390.945 -195.276 585.827 -195.276 390.551 -195.276 390.551 -195.276 390.551 -195.276 390.945 -195.669 195.276 -195.276 390.551 -195.276 390.551 -195.276 195.276 -195.276 390.551 -195.276 195.276 -195.276 390.945 -195.276 195.276 -195.276 195.276 -195.276 390.551 -195.669 0 -390.551 -1367.32 -195.276 -976.378 -195.276 -781.102 -195.276 -586.22 -195.276 -585.827 -195.276 -390.551 -195.276 -390.551 -195.276 -390.945 -195.276 -195.276 -195.669 -390.551 -195.276 -195.276 -195.276 -390.551 -195.276 -195.276 -195.276 -195.276 -195.276 -195.276 -195.276 -390.945 -195.276 -195.276 -195.276 -195.276 -195.276 -195.276 -390.945 -195.276 -195.276 -195.276 -195.276 -195.276 -195.276 -195.276 -195.276 -195.276 -390.551 -195.276 -390.551 -195.669 -195.276 -195.276 -390.945 -195.276 -390.551 -195.276 -390.551 -195.276 -585.827 3711.02 -195.276 976.378 -195.276 195.276 -195.669 0 -195.276 -781.102 -195.276 -585.827 -195.276 -586.22 -195.276 -390.551 -195.276 -390.551 -195.276 -390.551 -195.276 -390.551 -195.276 -390.551 -195.276 -195.669 -195.669 -390.551 -195.276 -195.276 -195.276 -195.276 -195.276 -390.551 -195.276 -195.276 -195.276 -195.276 -195.276 -195.276 -195.276 -195.669 -195.276 -195.276 -195.276 -195.276 -390.551 -195.276 -195.669 -195.276 -195.276 -195.276 -195.276 -195.276 -390.551 -195.276 -390.551 -195.276 -195.276 -195.276 -390.945 -195.276 -390.551 -195.276 -390.551 -195.669 -585.827 -195.276 -585.827 -195.276 -586.22 -195.276 -976.378 -185.433 -1591.73 380.709 224.409 390.551 195.276 586.22 195.276 390.551 195.276 781.102 195.669 976.772 195.276 1562.2 0 0 -195.276 -195.276 -195.669 -195.276 -195.276 -195.276 -195.276 -390.551 -195.276 -195.276 -195.276 -195.276 -195.276 -195.276 -195.276 -195.276 -195.276 -195.669 -195.276 -195.276 -195.276 -195.276 -195.276 -195.276 -390.945 -195.276 -195.276 -195.276 -195.276 -195.276 -390.551 -195.276 -390.551 -195.276 -195.276 -195.276 -390.551 -195.276 -390.945 -195.276 -585.827 -195.669 -390.551 -195.276 -585.827 -195.276 -976.772 -195.276 -1171.65 0 -1953.15 195.276 -1367.32 195.276 -781.102 195.276 -586.22 195.669 -585.827 195.276 -390.551 195.276 -390.551 9.84252 -420.079 380.709 224.803 195.276 390.551 195.276 195.276 195.276 195.276 195.276 195.276 195.276 195.276 195.276 195.276 195.276 195.276 195.669 195.276 195.276 195.276 195.276 195.669 195.276 195.276 195.276 195.276 195.276 195.276 195.276 195.276 195.276 195.276 195.276 195.276 195.276 195.276 195.669 195.276 390.551 195.276 195.276 195.276 195.276 195.669 195.276 195.276 195.276 195.276 390.551 195.276 195.276 195.276 195.276 195.276 390.945 195.276 195.276 195.276 195.276 195.276 390.551 195.276 195.276 195.669 390.551 195.276 195.276 195.276 390.945 195.276 390.551 195.276 195.276 195.276 390.551 195.276 390.551 195.276 390.551 195.276 390.945 195.276 390.551 195.276 390.551 195.669 390.551 195.276 390.551 195.276 390.945 195.276 390.551 195.276 585.827 195.276 390.551 195.276 586.22 195.276 585.827 195.276 585.827 195.276 585.827 195.669 781.496 195.276 781.102 195.276 781.102 195.276 976.772 195.276 1172.05 195.276 1366.93 195.276 1953.15 0 0 -976.378 0 -3320.47 195.276 -976.378 195.276 -781.496 195.276 -585.827 195.669 -390.551 195.276 -390.945 195.276 -390.551 195.276 -390.551 195.276 -390.551 195.276 -195.276 195.276 -390.551 195.276 -195.276 195.276 -390.945 195.276 -195.276 195.276 -195.276 195.276 -195.276 195.669 -195.276 195.276 -195.276 195.276 -195.276 195.276 -195.276 195.276 -195.276 390.551 -195.276 195.276 -195.669 195.276 -195.276 390.945 -195.276 195.276 -195.276 390.551 -195.276 390.551 -195.276 390.551 -195.276 390.551 -195.276 586.22 -195.276 585.827 -195.276 781.102 -195.669 1172.05 -195.276 2538.98 0 976.772 195.276 781.102 195.669 585.827 195.276 586.22 195.276 390.551 195.276 390.551 195.276 390.551 195.276 390.551 195.276 195.276 195.276 390.945 195.276 195.276 195.276 390.551 195.669 195.276 195.276 195.276 195.276 195.276 195.276 195.276 195.276 195.276 195.276 195.276 195.276 390.945 0 976.378 -195.276 585.827 -195.276 781.496 -195.276 585.827 -195.276 585.827 -195.276 390.551 -195.276 586.22 -195.669 390.551 -195.276 390.551 -195.276 390.551 -195.276 390.945 -195.276 390.551 -195.276 195.276 0 -195.276 390.551zm-32617.3 -29296.9l-1562.6 195.276 -976.378 195.276 -1172.05 195.276 -976.378 195.669 -781.496 195.276 -781.102 195.276 -781.102 195.276 -586.22 195.276 -781.102 195.276 -585.827 195.276 -586.22 195.276 -585.827 195.276 -585.827 195.276 -585.827 195.276 -390.945 195.276 -585.827 195.669 -390.551 195.276 -585.827 195.276 -390.945 195.276 -390.551 195.276 -585.827 195.276 -390.551 195.276 -390.551 195.276 -390.945 195.276 -390.551 195.276 -390.551 195.669 -390.551 195.276 -390.551 195.276 -390.551 195.276 -195.669 195.276 -390.551 195.276 -390.551 195.276 -390.551 195.276 -195.276 195.276 -390.945 195.276 -390.551 195.276 -195.276 195.669 -390.551 195.276 -195.276 195.276 -390.551 195.276 -195.276 195.276 -390.551 195.276 -195.669 195.276 -390.551 195.276 -195.276 195.276 -390.551 195.276 -195.276 195.276 -195.276 195.669 -390.551 195.276 -195.669 195.276 -195.276 195.276 -390.551 195.276 -195.276 195.276 -195.276 195.276 -195.276 195.276 -390.551 195.276 -195.276 195.276 -195.276 195.669 -195.669 195.276 -195.276 195.276 -390.551 195.276 -195.276 195.276 -195.276 195.276 -195.276 195.276 -195.276 195.276 -195.276 195.276 -195.276 195.276 -195.276 195.276 -195.669 195.669 -195.276 195.276 -195.276 195.276 -195.276 195.276 -195.276 195.276 -195.276 195.276 -195.276 195.276 -195.276 195.276 -195.276 195.276 -195.276 195.276 -195.669 195.669 -195.276 195.276 -195.276 195.276 -195.276 195.276 -195.276 195.276 -195.276 195.276 -195.276 195.276 -195.276 195.276 -195.276 390.551 -195.276 195.276 -195.276 195.669 -195.669 195.276 -195.276 195.276 -195.276 390.551 -195.276 195.276 -195.276 195.276 -195.276 195.276 -195.276 390.551 -195.276 195.276 -195.276 195.669 -195.276 390.551 -195.669 195.276 -195.276 195.276 -195.276 390.551 -195.276 195.276 -195.276 390.551 -195.276 195.669 -195.276 390.551 -195.276 195.276 -195.276 390.551 -195.276 195.276 -195.276 390.551 -195.669 195.276 -195.276 390.551 -195.276 390.945 -195.276 195.276 -195.276 390.551 -195.276 390.551 -195.276 390.551 -195.276 195.669 -195.276 390.551 -195.276 390.551 -195.276 390.551 -195.669 390.551 -195.276 390.551 -195.276 390.945 -195.276 390.551 -195.276 390.551 -195.276 585.827 -195.276 390.551 -195.276 390.945 -195.276 585.827 -195.276 390.551 -195.669 585.827 -195.276 390.945 -195.276 585.827 -195.276 585.827 -195.276 585.827 -195.276 586.22 -195.276 585.827 -195.276 781.102 -195.276 586.22 -195.276 781.102 -195.276 781.102 -195.276 781.496 -195.669 976.378 -195.276 976.772 -195.276 1171.65 -195.276 1367.32 -195.276 1953.15 0 8984.25 195.276 1757.87 195.276 1562.6 195.276 1171.65 195.276 976.772 195.669 976.378 195.276 781.496 195.276 781.102 195.276 781.102 195.276 586.22 195.276 781.102 195.276 585.827 195.276 586.22 195.276 585.827 195.276 585.827 195.276 585.827 195.276 390.945 195.669 585.827 195.276 390.551 195.276 585.827 195.276 390.945 195.276 390.551 195.276 585.827 195.276 390.551 195.276 390.551 195.276 390.945 195.276 390.551 195.669 390.551 195.276 390.551 195.276 390.551 195.276 390.551 195.276 195.669 195.276 390.551 195.276 390.551 195.276 390.551 195.276 195.276 195.276 390.945 195.276 390.551 195.669 195.276 195.276 390.551 195.276 195.276 195.276 390.551 195.276 195.276 195.276 390.551 195.276 195.669 195.276 390.551 195.276 195.276 195.276 390.551 195.276 195.276 195.669 195.276 195.276 390.551 195.276 195.669 195.276 195.276 195.276 390.551 195.276 195.276 195.276 195.276 195.276 195.276 195.276 390.551 195.276 195.276 195.669 195.276 195.276 195.669 195.276 195.276 195.276 390.551 195.276 195.276 195.276 195.276 195.276 195.276 195.276 195.276 195.276 195.276 195.276 195.276 195.276 195.276 195.669 195.669 195.276 195.276 195.276 195.276 195.276 195.276 195.276 195.276 195.276 195.276 195.276 195.276 195.276 195.276 195.276 195.276 195.276 195.276 195.669 195.669 195.276 195.276 195.276 195.276 195.276 195.276 195.276 195.276 195.276 195.276 195.276 195.276 390.551 195.276 195.276 195.276 195.276 195.276 195.669 195.276 195.276 195.669 195.276 195.276 390.551 195.276 195.276 195.276 195.276 195.276 195.276 195.276 390.551 195.276 195.276 195.276 195.669 195.276 390.551 195.276 195.276 195.669 195.276 195.276 390.551 195.276 195.276 195.276 390.551 195.276 195.669 195.276 390.551 195.276 195.276 195.276 390.551 195.276 195.276 195.276 390.551 195.276 195.276 195.669 390.551 195.276 390.945 195.276 195.276 195.276 390.551 195.276 390.551 195.276 390.551 195.276 195.669 195.276 390.551 195.276 390.551 195.276 390.551 195.276 390.551 195.669 390.551 195.276 390.945 195.276 390.551 195.276 390.551 195.276 585.827 195.276 390.551 195.276 390.945 195.276 585.827 195.276 390.551 195.276 585.827 195.669 390.945 195.276 585.827 195.276 585.827 195.276 585.827 195.276 586.22 195.276 585.827 195.276 781.102 195.276 586.22 195.276 781.102 195.276 781.102 195.276 781.496 195.276 976.378 195.669 1172.05 195.276 976.378 195.276 1562.6 195.276 1757.87 195.276 8984.25 0 1757.87 -195.276 1562.6 -195.276 1171.65 -195.276 976.772 -195.276 976.378 -195.669 781.496 -195.276 781.102 -195.276 781.102 -195.276 586.22 -195.276 781.102 -195.276 585.827 -195.276 586.22 -195.276 585.827 -195.276 585.827 -195.276 585.827 -195.276 390.945 -195.276 585.827 -195.669 390.551 -195.276 585.827 -195.276 390.945 -195.276 390.551 -195.276 585.827 -195.276 390.551 -195.276 390.551 -195.276 390.945 -195.276 390.551 -195.276 390.551 -195.669 390.551 -195.276 390.551 -195.276 390.551 -195.276 195.669 -195.276 390.551 -195.276 390.551 -195.276 390.551 -195.276 195.276 -195.276 390.945 -195.276 390.551 -195.276 195.276 -195.669 390.551 -195.276 195.276 -195.276 390.551 -195.276 195.276 -195.276 390.551 -195.276 195.669 -195.276 390.551 -195.276 195.276 -195.276 390.551 -195.276 195.276 -195.276 195.276 -195.669 390.551 -195.276 195.669 -195.276 195.276 -195.276 390.551 -195.276 195.276 -195.276 195.276 -195.276 195.276 -195.276 390.551 -195.276 195.276 -195.276 195.276 -195.669 195.669 -195.276 195.276 -195.276 195.276 -195.276 390.551 -195.276 195.276 -195.276 195.276 -195.276 195.276 -195.276 195.276 -195.276 195.276 -195.276 195.276 -195.276 195.669 -195.669 195.276 -195.276 195.276 -195.276 195.276 -195.276 195.276 -195.276 195.276 -195.276 195.276 -195.276 195.276 -195.276 195.276 -195.276 195.276 -195.276 195.669 -195.669 195.276 -195.276 195.276 -195.276 195.276 -195.276 195.276 -195.276 195.276 -195.276 195.276 -195.276 195.276 -390.551 195.276 -195.276 195.276 -195.276 195.276 -195.669 195.669 -195.276 195.276 -195.276 195.276 -390.551 195.276 -195.276 195.276 -195.276 195.276 -195.276 195.276 -390.551 195.276 -195.276 195.276 -195.669 195.276 -390.551 195.669 -195.276 195.276 -195.276 195.276 -390.551 195.276 -195.276 195.276 -390.551 195.276 -195.669 195.276 -390.551 195.276 -195.276 195.276 -390.551 195.276 -195.276 195.276 -390.551 195.669 -195.276 195.276 -390.551 195.276 -390.945 195.276 -195.276 195.276 -390.551 195.276 -390.551 195.276 -390.551 195.276 -195.669 195.276 -390.551 195.276 -390.551 195.276 -390.551 195.669 -390.551 195.276 -390.551 195.276 -390.945 195.276 -390.551 195.276 -390.551 195.276 -585.827 195.276 -390.551 195.276 -390.945 195.276 -585.827 195.276 -390.551 195.669 -585.827 195.276 -390.945 195.276 -585.827 195.276 -585.827 195.276 -585.827 195.276 -586.22 195.276 -585.827 195.276 -781.102 195.276 -586.22 195.276 -781.102 195.276 -781.102 195.276 -781.496 195.669 -976.378 195.276 -976.772 195.276 -1171.65 195.276 -1562.6 195.276 -1757.87 0 -8984.25 -195.276 -1757.87 -195.276 -1562.6 -195.276 -1171.65 -195.276 -976.772 -195.669 -976.378 -195.276 -781.496 -195.276 -781.102 -195.276 -781.102 -195.276 -586.22 -195.276 -781.102 -195.276 -585.827 -195.276 -586.22 -195.276 -585.827 -195.276 -585.827 -195.276 -585.827 -195.276 -390.945 -195.669 -585.827 -195.276 -390.551 -195.276 -585.827 -195.276 -390.945 -195.276 -390.551 -195.276 -585.827 -195.276 -390.551 -195.276 -390.551 -195.276 -390.945 -195.276 -390.551 -195.669 -390.551 -195.276 -390.551 -195.276 -390.551 -195.276 -390.551 -195.276 -195.669 -195.276 -390.551 -195.276 -390.551 -195.276 -390.551 -195.276 -195.276 -195.276 -390.945 -195.276 -390.551 -195.669 -195.276 -195.276 -390.551 -195.276 -195.276 -195.276 -390.551 -195.276 -195.276 -195.276 -390.551 -195.276 -195.669 -195.276 -390.551 -195.276 -195.276 -195.276 -390.551 -195.276 -195.276 -195.669 -195.276 -195.276 -390.551 -195.276 -195.669 -195.276 -195.276 -195.276 -390.551 -195.276 -195.276 -195.276 -195.276 -195.276 -195.276 -195.276 -390.551 -195.276 -195.276 -195.669 -195.276 -195.276 -195.669 -195.276 -195.276 -195.276 -195.276 -195.276 -390.551 -195.276 -195.276 -195.276 -195.276 -195.276 -195.276 -195.276 -195.276 -195.276 -195.276 -195.276 -195.276 -195.669 -195.669 -195.276 -195.276 -195.276 -195.276 -195.276 -195.276 -195.276 -195.276 -195.276 -195.276 -195.276 -195.276 -195.276 -195.276 -195.276 -195.276 -195.276 -195.276 -195.669 -195.669 -195.276 -195.276 -195.276 -195.276 -195.276 -195.276 -195.276 -195.276 -195.276 -195.276 -195.276 -195.276 -195.276 -195.276 -390.551 -195.276 -195.276 -195.276 -195.669 -195.276 -195.276 -195.669 -195.276 -195.276 -390.551 -195.276 -195.276 -195.276 -195.276 -195.276 -195.276 -195.276 -390.551 -195.276 -195.276 -195.276 -195.669 -195.276 -390.551 -195.276 -195.276 -195.669 -195.276 -195.276 -390.551 -195.276 -195.276 -195.276 -390.551 -195.276 -195.669 -195.276 -390.551 -195.276 -195.276 -195.276 -390.551 -195.276 -195.276 -195.276 -390.551 -195.276 -195.276 -195.669 -390.551 -195.276 -390.945 -195.276 -195.276 -195.276 -390.551 -195.276 -390.551 -195.276 -390.551 -195.276 -195.669 -195.276 -390.551 -195.276 -390.551 -195.276 -390.551 -195.276 -390.551 -195.669 -390.551 -195.276 -390.945 -195.276 -390.551 -195.276 -390.551 -195.276 -585.827 -195.276 -390.551 -195.276 -390.945 -195.276 -585.827 -195.276 -390.551 -195.276 -585.827 -195.669 -390.945 -195.276 -585.827 -195.276 -585.827 -195.276 -585.827 -195.276 -586.22 -195.276 -585.827 -195.276 -781.102 -195.276 -586.22 -195.276 -781.102 -195.276 -781.102 -195.276 -781.496 -195.276 -976.378 -195.669 -976.772 -195.276 -1171.65 -195.276 -1562.6 -195.276 -1757.87 -195.276 -8984.25 0 -1757.87 195.276z"/>
 </g>
</svg>
