<?xml version="1.0" encoding="UTF-8"?>
<!DOCTYPE svg PUBLIC "-//W3C//DTD SVG 1.1//EN" "http://www.w3.org/Graphics/SVG/1.1/DTD/svg11.dtd">
<!-- Creator: CorelDRAW -->
<svg xmlns="http://www.w3.org/2000/svg" xml:space="preserve" width="1.1in" height="1.1in" style="shape-rendering:geometricPrecision; text-rendering:geometricPrecision; image-rendering:optimizeQuality; fill-rule:evenodd; clip-rule:evenodd"
viewBox="0 0 110000 110000"
 xmlns:xlink="http://www.w3.org/1999/xlink">
 <defs>
  <style type="text/css">
   <![CDATA[
    .fil0 {fill:#445772}
   ]]>
  </style>
 </defs>
 <g id="Layer_x0020_1">
  <metadata id="CorelCorpID_0Corel-Layer"/>
  <g id="_109985736">
   <g>
    <path id="_97869784" class="fil0" d="M85468.9 58515.7l-195.276 1171.65 -195.669 976.772 -195.276 781.102 -195.276 781.102 -195.276 586.22 -195.276 585.827 -195.276 585.827 -195.276 586.22 -195.276 390.551 -195.276 585.827 -195.276 390.551 -195.669 390.551 -195.276 586.22 -195.276 390.551 -195.276 390.551 -195.276 390.551 -195.276 390.551 -195.276 195.669 -195.276 390.551 -195.276 390.551 -195.276 195.276 -195.276 390.551 -195.276 390.551 -195.669 195.669 -195.276 390.551 -195.276 195.276 -195.276 195.276 -195.276 390.551 -195.276 195.276 -195.276 195.276 -195.276 390.551 -195.276 195.669 -195.669 195.276 -195.276 195.276 -195.276 390.551 -195.276 195.276 -195.276 195.276 -195.276 195.276 -195.276 195.276 -195.276 195.276 -195.276 195.276 -195.276 195.669 -195.276 195.276 -195.276 195.276 -195.669 195.276 -195.276 195.276 -195.276 195.276 -195.276 195.276 -195.276 195.276 -195.276 195.276 -195.276 195.276 -195.276 195.669 -390.551 195.276 -195.669 195.276 -195.276 195.276 -195.276 195.276 -390.551 195.276 -195.276 195.276 -195.276 195.276 -390.551 195.276 -195.276 195.276 -390.945 195.276 -195.276 195.276 -390.551 195.669 -195.276 195.276 -390.551 195.276 -390.551 195.276 -195.276 195.276 -390.945 195.276 -390.551 195.276 -390.551 195.276 -390.551 195.276 -390.551 195.669 -390.945 195.276 -390.551 195.276 -390.551 195.276 -585.827 195.276 -585.827 195.276 -390.945 195.276 -585.827 195.276 -585.827 195.276 -586.22 195.276 -781.102 195.276 -781.102 195.276 -781.496 195.669 -1171.65 195.276 -1367.32 195.276 -2929.53 195.276 -1367.32 0 -2538.98 -195.276 -1367.32 -195.276 -976.378 -195.276 -976.772 -195.669 -781.102 -195.276 -781.102 -195.276 -586.22 -195.276 -585.827 -195.276 -585.827 -195.276 -586.22 -195.276 -390.551 -195.276 -585.827 -195.276 -390.551 -195.276 -390.551 -195.276 -390.945 -195.276 -390.551 -195.669 -390.551 -195.276 -390.551 -195.276 -781.496 0 -781.102 195.276 -781.102 195.276 -781.496 195.669 -781.102 195.276 -585.827 195.276 -781.496 195.276 -781.102 195.276 -781.102 195.276 -781.496 195.276 -781.102 195.276 -586.22 195.276 -781.102 195.276 -781.102 195.276 -781.496 195.276 -781.102 195.669 -585.827 195.276 -781.496 195.276 -781.102 195.276 -781.102 195.276 -781.496 195.276 0 -390.551 195.276 -781.496 195.276 -585.827 195.669 -781.102 195.276 -585.827 195.276 -781.496 195.276 -781.102 195.276 -586.22 195.276 -781.102 195.276 -781.102 195.276 -585.827 195.276 -781.496 195.276 -781.102 195.276 -586.22 195.276 -781.102 195.669 -781.102 195.276 -586.22 195.276 -781.102 195.276 -781.102 195.276 -586.22 195.276 -781.102 0 -781.102 -195.276 -390.945 -195.276 -390.551 -195.276 -390.551 -195.276 -390.551 -195.276 -390.551 -195.669 -390.551 -195.276 -390.945 -195.276 -585.827 -195.276 -390.551 -195.276 -585.827 -195.276 -390.945 -195.276 -585.827 -195.276 -585.827 -195.276 -781.496 -195.276 -585.827 -195.276 -976.378 -195.276 -781.496 -195.669 -1171.65 -195.276 -1562.6 0 -6054.72 195.276 -1367.32 195.669 -1171.65 195.276 -976.772 195.276 -781.102 195.276 -585.827 195.276 -781.496 195.276 -585.827 195.276 -585.827 195.276 -585.827 195.276 -390.945 195.276 -585.827 195.276 -390.551 195.276 -390.551 195.669 -390.551 195.276 -390.945 195.276 -390.551 195.276 -390.551 195.276 -390.551 195.276 -390.551 195.276 -390.945 195.276 -195.276 195.276 -390.551 195.669 -390.551 195.276 -195.276 195.276 -390.551 195.276 -195.276 195.276 -390.945 195.276 -195.276 195.276 -195.276 195.276 -390.551 195.276 -195.276 195.276 -195.276 195.276 -390.551 195.276 -195.276 195.669 -195.669 195.276 -195.276 195.276 -195.276 195.276 -390.551 195.276 -195.276 195.276 -195.276 195.276 -195.276 195.276 -195.276 195.276 -195.276 195.276 -195.669 195.669 -195.276 195.276 -195.276 195.276 -195.276 195.276 -195.276 195.276 -195.276 390.551 -195.276 195.276 -195.276 195.276 -195.276 195.276 -195.276 195.276 -195.276 390.945 -195.276 195.276 -195.669 195.276 -195.276 195.276 -195.276 390.551 -195.276 195.276 -195.276 390.551 -195.276 195.276 -195.276 195.669 -195.276 390.551 -195.276 390.551 -195.669 195.276 -195.276 390.551 -195.276 390.551 -195.276 195.669 -195.276 390.551 -195.276 390.551 -195.276 390.551 -195.276 390.551 -195.276 390.551 -195.276 390.945 -195.276 585.827 -195.276 390.551 -195.669 390.551 -195.276 586.22 -195.276 585.827 -195.276 585.827 -195.276 585.827 -195.276 781.496 -195.276 585.827 -195.276 976.772 -195.276 976.378 -195.276 1172.05 -195.669 1952.76 -195.276 4101.57 0 1953.15 195.276 1172.05 195.669 976.378 195.276 976.772 195.276 781.102 195.276 586.22 195.276 585.827 195.276 585.827 195.276 585.827 195.276 586.22 195.276 390.551 195.276 585.827 195.669 390.551 195.276 390.945 195.276 390.551 195.276 390.551 195.276 390.551 195.276 390.551 195.276 390.945 195.276 195.276 195.276 390.551 195.276 390.551 195.276 195.276 195.276 390.551 195.669 390.551 195.276 195.669 195.276 195.276 195.276 390.551 195.276 195.276 195.276 390.551 195.276 195.276 195.276 195.276 195.276 195.276 195.669 390.945 195.276 195.276 195.276 195.276 195.276 195.276 195.276 195.276 195.276 390.551 195.276 195.276 195.276 195.276 195.276 195.276 195.276 195.669 195.276 195.276 195.276 195.276 195.669 195.276 195.276 195.276 195.276 195.276 195.276 195.276 195.276 195.276 390.551 195.276 195.276 195.276 195.276 195.276 195.276 195.276 195.669 195.669 195.276 195.276 390.551 195.276 195.276 195.276 195.276 195.276 390.551 195.276 195.276 195.276 195.276 195.276 390.945 195.276 195.276 195.669 390.551 195.276 195.276 195.276 390.551 195.276 390.551 195.276 195.276 195.276 390.945 195.276 390.551 195.276 390.551 195.276 390.551 195.276 390.551 195.276 390.945 195.276 390.551 195.669 390.551 195.276 390.551 195.276 585.827 195.276 586.22 195.276 390.551 195.276 585.827 195.276 585.827 195.276 781.496 195.276 781.102 195.276 781.496 195.669 976.378 195.276 1172.05 195.276 1562.2 0 5273.62 -195.276 1757.87zm-36718.9 -53320.5l-1562.6 195.276 -976.378 195.276 -1172.05 195.276 -976.378 195.669 -781.496 195.276 -781.102 195.276 -781.102 195.276 -586.22 195.276 -781.102 195.276 -585.827 195.276 -586.22 195.276 -585.827 195.276 -585.827 195.276 -585.827 195.276 -390.945 195.276 -585.827 195.669 -390.551 195.276 -585.827 195.276 -390.945 195.276 -390.551 195.276 -585.827 195.276 -390.551 195.276 -390.551 195.276 -390.945 195.276 -390.551 195.276 -390.551 195.669 -390.551 195.276 -390.551 195.276 -390.551 195.276 -195.669 195.276 -390.551 195.276 -390.551 195.276 -390.551 195.276 -195.276 195.276 -390.945 195.276 -390.551 195.276 -195.276 195.669 -390.551 195.276 -195.276 195.276 -390.551 195.276 -195.276 195.276 -390.551 195.276 -195.669 195.276 -390.551 195.276 -195.276 195.276 -390.551 195.276 -195.276 195.276 -195.276 195.669 -390.551 195.276 -195.669 195.276 -195.276 195.276 -390.551 195.276 -195.276 195.276 -195.276 195.276 -195.276 195.276 -390.551 195.276 -195.276 195.276 -195.276 195.669 -195.669 195.276 -195.276 195.276 -390.551 195.276 -195.276 195.276 -195.276 195.276 -195.276 195.276 -195.276 195.276 -195.276 195.276 -195.276 195.276 -195.276 195.276 -195.669 195.669 -195.276 195.276 -195.276 195.276 -195.276 195.276 -195.276 195.276 -195.276 195.276 -195.276 195.276 -195.276 195.276 -195.276 195.276 -195.276 195.276 -195.669 195.669 -195.276 195.276 -195.276 195.276 -195.276 195.276 -195.276 195.276 -195.276 195.276 -195.276 195.276 -195.276 195.276 -195.276 390.551 -195.276 195.276 -195.276 195.669 -195.669 195.276 -195.276 195.276 -195.276 390.551 -195.276 195.276 -195.276 195.276 -195.276 195.276 -195.276 390.551 -195.276 195.276 -195.276 195.669 -195.276 390.551 -195.669 195.276 -195.276 195.276 -195.276 390.551 -195.276 195.276 -195.276 390.551 -195.276 195.669 -195.276 390.551 -195.276 195.276 -195.276 390.551 -195.276 195.276 -195.276 390.551 -195.669 195.276 -195.276 390.551 -195.276 390.945 -195.276 195.276 -195.276 390.551 -195.276 390.551 -195.276 390.551 -195.276 195.669 -195.276 390.551 -195.276 390.551 -195.276 390.551 -195.669 390.551 -195.276 390.551 -195.276 390.945 -195.276 390.551 -195.276 390.551 -195.276 585.827 -195.276 390.551 -195.276 390.945 -195.276 585.827 -195.276 390.551 -195.669 585.827 -195.276 390.945 -195.276 585.827 -195.276 585.827 -195.276 585.827 -195.276 586.22 -195.276 585.827 -195.276 781.102 -195.276 586.22 -195.276 781.102 -195.276 781.102 -195.276 781.496 -195.669 976.378 -195.276 976.772 -195.276 1171.65 -195.276 1367.32 -195.276 1953.15 0 8984.25 195.276 1757.87 195.276 1562.6 195.276 1171.65 195.276 976.772 195.669 976.378 195.276 781.496 195.276 781.102 195.276 781.102 195.276 586.22 195.276 781.102 195.276 585.827 195.276 586.22 195.276 585.827 195.276 585.827 195.276 585.827 195.276 390.945 195.669 585.827 195.276 390.551 195.276 585.827 195.276 390.945 195.276 390.551 195.276 585.827 195.276 390.551 195.276 390.551 195.276 390.945 195.276 390.551 195.669 390.551 195.276 390.551 195.276 390.551 195.276 390.551 195.276 195.669 195.276 390.551 195.276 390.551 195.276 390.551 195.276 195.276 195.276 390.945 195.276 390.551 195.669 195.276 195.276 390.551 195.276 195.276 195.276 390.551 195.276 195.276 195.276 390.551 195.276 195.669 195.276 390.551 195.276 195.276 195.276 390.551 195.276 195.276 195.669 195.276 195.276 390.551 195.276 195.669 195.276 195.276 195.276 390.551 195.276 195.276 195.276 195.276 195.276 195.276 195.276 390.551 195.276 195.276 195.669 195.276 195.276 195.669 195.276 195.276 195.276 390.551 195.276 195.276 195.276 195.276 195.276 195.276 195.276 195.276 195.276 195.276 195.276 195.276 195.276 195.276 195.669 195.669 195.276 195.276 195.276 195.276 195.276 195.276 195.276 195.276 195.276 195.276 195.276 195.276 195.276 195.276 195.276 195.276 195.276 195.276 195.669 195.669 195.276 195.276 195.276 195.276 195.276 195.276 195.276 195.276 195.276 195.276 195.276 195.276 390.551 195.276 195.276 195.276 195.276 195.276 195.669 195.276 195.276 195.669 195.276 195.276 390.551 195.276 195.276 195.276 195.276 195.276 195.276 195.276 390.551 195.276 195.276 195.276 195.669 195.276 390.551 195.276 195.276 195.669 195.276 195.276 390.551 195.276 195.276 195.276 390.551 195.276 195.669 195.276 390.551 195.276 195.276 195.276 390.551 195.276 195.276 195.276 390.551 195.276 195.276 195.669 390.551 195.276 390.945 195.276 195.276 195.276 390.551 195.276 390.551 195.276 390.551 195.276 195.669 195.276 390.551 195.276 390.551 195.276 390.551 195.276 390.551 195.669 390.551 195.276 390.945 195.276 390.551 195.276 390.551 195.276 585.827 195.276 390.551 195.276 390.945 195.276 585.827 195.276 390.551 195.276 585.827 195.669 390.945 195.276 585.827 195.276 585.827 195.276 585.827 195.276 586.22 195.276 585.827 195.276 781.102 195.276 586.22 195.276 781.102 195.276 781.102 195.276 781.496 195.276 976.378 195.669 1172.05 195.276 976.378 195.276 1562.6 195.276 1757.87 195.276 8984.25 0 1757.87 -195.276 1562.6 -195.276 1171.65 -195.276 976.772 -195.276 976.378 -195.669 781.496 -195.276 781.102 -195.276 781.102 -195.276 586.22 -195.276 781.102 -195.276 585.827 -195.276 586.22 -195.276 585.827 -195.276 585.827 -195.276 585.827 -195.276 390.945 -195.276 585.827 -195.669 390.551 -195.276 585.827 -195.276 390.945 -195.276 390.551 -195.276 585.827 -195.276 390.551 -195.276 390.551 -195.276 390.945 -195.276 390.551 -195.276 390.551 -195.669 390.551 -195.276 390.551 -195.276 390.551 -195.276 195.669 -195.276 390.551 -195.276 390.551 -195.276 390.551 -195.276 195.276 -195.276 390.945 -195.276 390.551 -195.276 195.276 -195.669 390.551 -195.276 195.276 -195.276 390.551 -195.276 195.276 -195.276 390.551 -195.276 195.669 -195.276 390.551 -195.276 195.276 -195.276 390.551 -195.276 195.276 -195.276 195.276 -195.669 390.551 -195.276 195.669 -195.276 195.276 -195.276 390.551 -195.276 195.276 -195.276 195.276 -195.276 195.276 -195.276 390.551 -195.276 195.276 -195.276 195.276 -195.669 195.669 -195.276 195.276 -195.276 195.276 -195.276 390.551 -195.276 195.276 -195.276 195.276 -195.276 195.276 -195.276 195.276 -195.276 195.276 -195.276 195.276 -195.276 195.669 -195.669 195.276 -195.276 195.276 -195.276 195.276 -195.276 195.276 -195.276 195.276 -195.276 195.276 -195.276 195.276 -195.276 195.276 -195.276 195.276 -195.276 195.669 -195.669 195.276 -195.276 195.276 -195.276 195.276 -195.276 195.276 -195.276 195.276 -195.276 195.276 -195.276 195.276 -390.551 195.276 -195.276 195.276 -195.276 195.276 -195.669 195.669 -195.276 195.276 -195.276 195.276 -390.551 195.276 -195.276 195.276 -195.276 195.276 -195.276 195.276 -390.551 195.276 -195.276 195.276 -195.669 195.276 -390.551 195.669 -195.276 195.276 -195.276 195.276 -390.551 195.276 -195.276 195.276 -390.551 195.276 -195.669 195.276 -390.551 195.276 -195.276 195.276 -390.551 195.276 -195.276 195.276 -390.551 195.669 -195.276 195.276 -390.551 195.276 -390.945 195.276 -195.276 195.276 -390.551 195.276 -390.551 195.276 -390.551 195.276 -195.669 195.276 -390.551 195.276 -390.551 195.276 -390.551 195.669 -390.551 195.276 -390.551 195.276 -390.945 195.276 -390.551 195.276 -390.551 195.276 -585.827 195.276 -390.551 195.276 -390.945 195.276 -585.827 195.276 -390.551 195.669 -585.827 195.276 -390.945 195.276 -585.827 195.276 -585.827 195.276 -585.827 195.276 -586.22 195.276 -585.827 195.276 -781.102 195.276 -586.22 195.276 -781.102 195.276 -781.102 195.276 -781.496 195.669 -976.378 195.276 -976.772 195.276 -1171.65 195.276 -1562.6 195.276 -1757.87 0 -8984.25 -195.276 -1757.87 -195.276 -1562.6 -195.276 -1171.65 -195.276 -976.772 -195.669 -976.378 -195.276 -781.496 -195.276 -781.102 -195.276 -781.102 -195.276 -586.22 -195.276 -781.102 -195.276 -585.827 -195.276 -586.22 -195.276 -585.827 -195.276 -585.827 -195.276 -585.827 -195.276 -390.945 -195.669 -585.827 -195.276 -390.551 -195.276 -585.827 -195.276 -390.945 -195.276 -390.551 -195.276 -585.827 -195.276 -390.551 -195.276 -390.551 -195.276 -390.945 -195.276 -390.551 -195.669 -390.551 -195.276 -390.551 -195.276 -390.551 -195.276 -390.551 -195.276 -195.669 -195.276 -390.551 -195.276 -390.551 -195.276 -390.551 -195.276 -195.276 -195.276 -390.945 -195.276 -390.551 -195.669 -195.276 -195.276 -390.551 -195.276 -195.276 -195.276 -390.551 -195.276 -195.276 -195.276 -390.551 -195.276 -195.669 -195.276 -390.551 -195.276 -195.276 -195.276 -390.551 -195.276 -195.276 -195.669 -195.276 -195.276 -390.551 -195.276 -195.669 -195.276 -195.276 -195.276 -390.551 -195.276 -195.276 -195.276 -195.276 -195.276 -195.276 -195.276 -390.551 -195.276 -195.276 -195.669 -195.276 -195.276 -195.669 -195.276 -195.276 -195.276 -195.276 -195.276 -390.551 -195.276 -195.276 -195.276 -195.276 -195.276 -195.276 -195.276 -195.276 -195.276 -195.276 -195.276 -195.276 -195.669 -195.669 -195.276 -195.276 -195.276 -195.276 -195.276 -195.276 -195.276 -195.276 -195.276 -195.276 -195.276 -195.276 -195.276 -195.276 -195.276 -195.276 -195.276 -195.276 -195.669 -195.669 -195.276 -195.276 -195.276 -195.276 -195.276 -195.276 -195.276 -195.276 -195.276 -195.276 -195.276 -195.276 -195.276 -195.276 -390.551 -195.276 -195.276 -195.276 -195.669 -195.276 -195.276 -195.669 -195.276 -195.276 -390.551 -195.276 -195.276 -195.276 -195.276 -195.276 -195.276 -195.276 -390.551 -195.276 -195.276 -195.276 -195.669 -195.276 -390.551 -195.276 -195.276 -195.669 -195.276 -195.276 -390.551 -195.276 -195.276 -195.276 -390.551 -195.276 -195.669 -195.276 -390.551 -195.276 -195.276 -195.276 -390.551 -195.276 -195.276 -195.276 -390.551 -195.276 -195.276 -195.669 -390.551 -195.276 -390.945 -195.276 -195.276 -195.276 -390.551 -195.276 -390.551 -195.276 -390.551 -195.276 -195.669 -195.276 -390.551 -195.276 -390.551 -195.276 -390.551 -195.276 -390.551 -195.669 -390.551 -195.276 -390.945 -195.276 -390.551 -195.276 -390.551 -195.276 -585.827 -195.276 -390.551 -195.276 -390.945 -195.276 -585.827 -195.276 -390.551 -195.276 -585.827 -195.669 -390.945 -195.276 -585.827 -195.276 -585.827 -195.276 -585.827 -195.276 -586.22 -195.276 -585.827 -195.276 -781.102 -195.276 -586.22 -195.276 -781.102 -195.276 -781.102 -195.276 -781.496 -195.276 -976.378 -195.669 -976.772 -195.276 -1171.65 -195.276 -1562.6 -195.276 -1757.87 -195.276 -8984.25 0 -1757.87 195.276z"/>
    <path id="_6463248" class="fil0" d="M41132.7 46211l195.276 -976.772 195.669 -585.827 195.276 -390.551 195.276 -390.551 195.276 -586.22 195.276 -195.276 195.276 -390.551 195.276 -195.276 195.276 -195.276 195.276 -195.276 195.276 -390.551 195.276 -195.276 195.669 -195.669 195.276 -195.276 390.551 -195.276 390.551 -195.276 3125.2 0 195.276 195.276 195.276 390.551 195.276 390.945 195.276 390.551 195.276 585.827 195.276 390.551 195.276 586.22 195.276 390.551 195.276 390.551 195.276 585.827 195.669 390.551 195.276 586.22 195.276 390.551 195.276 390.551 195.276 585.827 0 1172.05 -195.276 195.276 -195.276 390.551 -195.276 195.276 -195.276 390.551 -195.669 195.669 -195.276 195.276 -195.276 390.551 -195.276 195.276 -195.276 195.276 -195.276 195.276 -195.276 390.551 0 1172.05 195.276 390.551 195.276 195.276 195.276 390.551 195.276 195.276 195.276 390.945 195.276 195.276 195.669 390.551 195.276 195.276 195.276 195.276 195.276 390.551 195.276 195.276 195.276 195.669 195.276 195.276 195.276 195.276 195.276 195.276 195.276 390.551 195.669 195.276 195.276 195.276 195.276 195.276 390.551 195.276 195.276 195.276 195.276 195.276 195.276 195.669 195.276 195.276 195.276 195.276 390.551 195.276 195.669 195.276 195.276 195.276 390.551 195.276 195.276 195.276 390.551 195.276 195.276 195.276 390.945 195.669 390.551 195.276 390.551 195.276 195.276 195.276 390.551 195.276 585.827 195.276 390.945 195.276 390.551 195.276 585.827 195.276 976.772 0 195.276 -195.276 195.276 -195.276 195.276 -195.276 195.276 -195.276 195.276 -195.276 195.276 -390.551 195.276 -195.276 195.276 -195.669 195.276 -195.276 195.276 -195.276 195.669 -390.551 195.276 -195.276 195.276 -195.276 195.276 -390.551 195.276 -195.276 195.276 -195.669 976.378 0 390.945 195.669 390.551 195.276 585.827 195.276 390.551 195.276 390.945 195.276 390.551 195.276 390.551 195.276 390.551 195.276 390.551 195.276 390.551 195.276 390.945 195.669 390.551 195.276 390.551 195.276 390.551 195.276 390.551 195.276 390.945 195.276 195.276 390.551 0 976.772 -195.276 1171.65 -195.276 585.827 -195.669 586.22 -195.276 390.551 -195.276 195.276 -195.276 195.276 0 390.551 -390.551 0 -195.276 195.276 -195.276 195.669 -195.276 195.276 -390.945 195.276 -195.276 195.276 -390.551 195.276 -390.551 195.276 -390.551 195.276 -390.551 195.276 -586.22 195.276 -976.378 195.276 -2538.98 0 -976.772 -195.276 -781.102 -195.276 -585.827 -195.276 -586.22 -195.276 -585.827 -195.276 -390.551 -195.276 -586.22 -195.276 -390.551 -195.276 -585.827 -195.276 -390.551 -195.669 -390.551 -195.276 -390.551 -195.276 -586.22 -195.276 -195.276 -195.276 -390.551 -195.276 -390.551 -195.276 -390.945 -195.276 -195.276 -195.276 -390.551 -195.276 -195.276 -195.669 -390.551 -195.276 -195.276 -195.276 -390.551 -195.276 -195.276 -195.276 -195.276 -195.276 -390.945 -195.276 -195.276 -195.276 -195.276 -195.276 -195.276 -195.276 -390.551 -195.276 -195.276 -195.669 -195.276 -195.276 -195.276 -195.276 -195.669 -195.276 -195.276 -195.276 -195.276 -195.276 -195.276 -195.276 -195.276 -195.276 -195.276 -195.276 -195.276 -195.276 -195.276 -195.276 -195.276 -195.669 -195.276 -195.276 -195.276 -195.276 -195.669 -195.276 -195.276 -195.276 -195.276 -195.276 -195.276 -195.276 -195.276 -195.276 -195.276 -195.276 -195.276 -390.945 -195.276 -195.276 -195.276 -195.276 -195.276 -195.276 -195.276 -390.551 -195.669 -195.276 -195.276 -195.276 -195.276 -195.276 -195.276 -390.551 -195.276 -195.276 -195.276 -390.945 -195.276 -195.276 -195.276 -195.276 -195.276 -390.551 -195.276 -195.276 -195.669 -390.551 -195.276 -195.669 -195.276 -390.551 -195.276 -390.551 -195.276 -195.276 -195.276 -390.551 -195.276 -390.551 -195.276 -390.551 -195.276 -586.22 -195.276 -390.551 -195.276 -585.827 -195.669 -781.496 -195.276 -976.378 0 -2343.7zm10937.8 -16796.9l-976.772 195.276 -976.378 195.276 -781.496 195.276 -585.827 195.276 -585.827 195.276 -586.22 195.276 -585.827 195.276 -390.551 195.669 -585.827 195.276 -390.551 195.276 -390.945 195.276 -390.551 195.276 -390.551 195.276 -390.551 195.276 -390.551 195.276 -195.669 195.276 -390.551 195.276 -390.551 195.276 -195.276 195.276 -390.551 195.669 -195.276 195.276 -390.551 195.276 -195.669 195.276 -195.276 195.276 -390.551 195.276 -195.276 195.276 -195.276 195.276 -195.276 195.276 -390.551 195.276 -195.276 195.669 -195.669 195.276 -195.276 195.276 -195.276 195.276 -195.276 195.276 -195.276 195.276 -195.276 195.276 -195.276 195.276 -195.276 195.276 -195.276 195.276 -195.276 195.276 -195.276 195.669 -195.669 195.276 -195.276 195.276 -195.276 195.276 -195.276 390.551 -195.276 195.276 -195.276 195.276 -195.276 195.276 -195.276 390.551 -195.276 195.669 -195.276 390.551 -195.276 195.276 -195.669 390.551 -195.276 195.276 -195.276 390.551 -195.276 195.276 -195.276 390.945 -195.276 390.551 -195.276 390.551 -195.276 390.551 -195.276 390.551 -195.276 390.945 -195.669 390.551 -195.276 390.551 -195.276 585.827 -195.276 390.551 -195.276 586.22 -195.276 585.827 -195.276 585.827 -195.276 781.496 -195.276 781.102 -195.276 976.378 -195.276 1367.32 0 6054.72 195.276 1367.32 195.276 976.378 195.276 976.772 195.276 585.827 195.276 781.102 195.276 586.22 195.276 390.551 195.276 585.827 195.276 585.827 195.276 390.551 195.669 390.945 195.276 390.551 195.276 390.551 195.276 390.551 195.276 390.551 195.276 390.945 195.276 195.276 195.276 390.551 195.276 390.551 195.276 195.276 195.669 390.551 0 390.945 -195.669 781.102 -195.276 585.827 -195.276 781.496 -195.276 781.102 -195.276 585.827 -195.276 781.496 -195.276 781.102 -195.276 585.827 -195.276 781.496 -195.276 781.102 -195.669 585.827 -195.276 781.496 0 390.551 390.945 0 781.102 -195.276 781.102 -195.276 781.496 -195.276 781.102 -195.276 585.827 -195.669 781.496 -195.276 781.102 -195.276 781.102 -195.276 781.496 -195.276 585.827 -195.276 781.496 -195.276 781.102 -195.276 195.276 0 390.551 195.276 195.276 195.276 390.551 195.276 390.945 195.276 390.551 195.276 390.551 195.276 390.551 195.276 390.551 195.669 390.945 195.276 390.551 195.276 585.827 195.276 390.551 195.276 586.22 195.276 585.827 195.276 585.827 195.276 781.102 195.276 781.496 195.276 976.378 195.276 1172.05 195.276 2538.98 195.669 1953.15 0 2343.7 -195.669 1172.05 -195.276 976.378 -195.276 781.496 -195.276 781.102 -195.276 585.827 -195.276 585.827 -195.276 586.22 -195.276 390.551 -195.276 585.827 -195.276 390.551 -195.276 390.945 -195.276 390.551 -195.669 390.551 -195.276 390.551 -195.276 390.551 -195.276 390.945 -195.276 195.276 -195.276 390.551 -195.276 195.276 -195.276 390.551 -195.276 390.551 -195.276 195.276 -195.669 195.669 -195.276 390.551 -195.276 195.276 -195.276 195.276 -195.276 390.551 -195.276 195.276 -195.276 195.276 -195.276 195.276 -195.276 195.276 -195.276 195.669 -195.276 390.551 -195.669 195.276 -195.276 195.276 -195.276 195.276 -195.276 195.276 -195.276 195.276 -195.276 195.276 -195.276 195.276 -195.276 195.276 -390.551 195.669 -195.276 195.276 -195.669 195.276 -195.276 195.276 -195.276 195.276 -390.551 195.276 -195.276 195.276 -195.276 195.276 -195.276 195.276 -390.551 195.276 -195.669 195.669 -390.551 195.276 -195.276 195.276 -390.551 195.276 -195.276 195.276 -390.551 195.276 -390.551 195.276 -195.669 195.276 -390.551 195.276 -390.551 195.276 -390.551 195.276 -390.551 195.276 -586.22 195.669 -390.551 195.276 -390.551 195.276 -585.827 195.276 -586.22 195.276 -585.827 195.276 -585.827 195.276 -781.102 195.276 -781.496 195.276 -1171.65 195.669 -1367.32 0 -5468.9 -195.669 -1562.2 -195.276 -976.772 -195.276 -781.102 -195.276 -781.496 -195.276 -781.102 -195.276 -585.827 -195.276 -586.22 -195.276 -390.551 -195.276 -585.827 -195.669 -390.551 -195.276 -390.551 -195.276 -390.945 -195.276 -390.551 -195.276 -390.551 -195.276 -390.551 -195.276 -390.551 -195.276 -390.945 -195.276 -195.276 -195.276 -390.551 -195.276 -195.276 -195.276 -390.551 -195.669 -195.276 -195.276 -390.551 -195.276 -195.669 -195.276 -195.276 -195.276 -390.551 -195.276 -195.276 -195.276 -195.276 -195.276 -195.276 -195.276 -390.551 -195.276 -195.276 -195.669 -195.276 -195.276 -195.669 -195.276 -195.276 -195.276 -195.276 -195.276 -195.276 -195.276 -195.276 -195.276 -195.276 -195.276 -195.276 -195.276 -195.276 -195.276 -195.276 -195.276 -195.276 -195.669 -195.276 -195.276 -195.669 -390.551 -195.276 -195.276 -195.276 -195.276 -195.276 -195.276 -195.276 -390.551 -195.276 -195.276 -195.276 -195.276 -195.276 -390.945 -195.276 -195.276 -195.276 -390.551 -195.669 -195.276 -195.276 -390.551 -195.276 -390.551 -195.276 -195.669 -195.276 -390.551 -195.276 -390.551 -195.276 -390.551 -195.276 -390.551 -195.276 -390.551 -195.276 -390.945 -195.276 -585.827 -195.276 -390.551 -195.669 -585.827 -195.276 -586.22 -195.276 -585.827 -195.276 -585.827 -195.276 -781.496 -195.276 -976.378 -195.276 -976.772 -195.276 -1757.48 -195.276 -4492.52 0 -1757.48 195.276z"/>
   </g>
  </g>
  <g id="_109985232">
   <g>
    <path id="_106771008" class="fil0" d="M-647697 -775204l195.276 -11914.2 195.669 -2148.43 195.276 -1171.65 195.276 -976.772 195.276 -781.102 195.276 -586.22 195.276 -585.827 195.276 -585.827 195.276 -390.551 195.276 -390.551 195.276 -390.945 195.276 -390.551 195.276 -390.551 195.669 -390.551 195.276 -195.276 195.276 -390.945 195.276 -195.276 195.276 -195.276 195.276 -390.551 195.276 -195.276 195.276 -195.276 195.276 -195.276 195.669 -195.276 195.276 -195.276 195.276 -195.276 195.276 -195.276 195.276 -195.669 195.276 -195.276 195.276 -195.276 195.276 -195.276 390.551 -195.276 195.276 -195.276 195.276 -195.276 390.945 -195.276 195.276 -195.276 390.551 -195.669 390.551 -195.276 390.551 -195.276 390.945 -195.276 390.551 -195.276 390.551 -195.276 585.827 -195.276 585.827 -195.276 586.22 -195.276 781.102 -195.276 976.772 -195.276 1171.65 -195.276 1953.15 -195.669 10937.4 -195.276 2734.65 0 10742.1 195.276 2148.43 195.669 1171.65 195.276 976.772 195.276 781.102 195.276 586.22 195.276 585.827 195.276 585.827 195.276 390.551 195.276 390.551 195.276 390.945 195.276 390.551 195.276 390.551 195.276 390.551 195.669 195.276 195.276 390.945 195.276 195.276 195.276 195.276 195.276 390.551 195.276 195.276 195.276 195.276 195.276 195.276 195.276 195.276 195.669 195.276 195.276 195.276 195.276 195.276 195.276 195.669 195.276 195.276 195.276 195.276 195.276 195.276 195.276 195.276 390.551 195.276 195.276 195.276 195.276 195.276 390.945 195.276 195.276 195.669 390.551 195.276 390.551 195.276 390.551 195.276 390.945 195.276 390.551 195.276 390.551 195.276 585.827 195.276 585.827 195.276 586.22 195.276 781.102 195.276 976.772 195.276 1171.65 195.669 2148.43 0 24218.9 -195.669 2148.43 -195.276 1171.65 -195.276 976.772 -195.276 781.102 -195.276 586.22 -195.276 585.827 -195.276 585.827 -195.276 390.551 -195.276 390.551 -195.276 390.945 -195.276 390.551 -195.276 390.551 -195.669 195.276 -195.276 390.551 -195.276 195.276 -195.276 390.945 -195.276 195.276 -195.276 195.276 -195.276 390.551 -195.276 195.276 -195.276 195.276 -195.669 195.276 -195.276 195.276 -195.276 195.276 -195.276 195.276 -195.276 195.669 -195.276 195.276 -195.276 195.276 -390.551 195.276 -195.276 195.276 -195.276 195.276 -390.945 195.276 -195.276 195.276 -390.551 195.276 -195.276 195.669 -390.551 195.276 -390.551 195.276 -390.945 195.276 -390.551 195.276 -390.551 195.276 -585.827 195.276 -585.827 195.276 -586.22 195.276 -781.102 195.276 -976.772 195.276 -1171.65 195.276 -2148.43 195.669 -10742.1 195.276 -2734.65 0 -10742.1 -195.276 -2148.43 -195.669 -1171.65 -195.276 -976.772 -195.276 -781.102 -195.276 -586.22 -195.276 -585.827 -195.276 -585.827 -195.276 -390.551 -195.276 -390.551 -195.276 -390.945 -195.276 -390.551 -195.276 -390.551 -195.276 -390.551 -195.669 -195.276 -195.276 -390.945 -195.276 -195.276 -195.276 -195.276 -195.276 -390.551 -195.276 -195.276 -195.276 -195.276 -195.276 -195.276 -195.276 -195.276 -195.669 -195.276 -195.276 -195.276 -195.276 -195.276 -195.276 -195.669 -195.276 -195.276 -195.276 -195.276 -195.276 -195.276 -195.276 -195.276 -390.551 -195.276 -195.276 -195.276 -195.276 -195.276 -390.945 -195.276 -195.276 -195.669 -390.551 -195.276 -390.551 -195.276 -390.551 -195.276 -390.945 -195.276 -390.551 -195.276 -390.551 -195.276 -585.827 -195.276 -585.827 -195.276 -586.22 -195.276 -781.102 -195.276 -976.772 -195.276 -1171.65 -195.669 -2148.43 -195.276 -11914.2 0 -390.551zm22265.7 -49609.4l-1562.6 195.276 -976.378 195.276 -1172.05 195.276 -976.378 195.669 -781.496 195.276 -781.102 195.276 -781.102 195.276 -586.22 195.276 -781.102 195.276 -585.827 195.276 -586.22 195.276 -585.827 195.276 -585.827 195.276 -585.827 195.276 -390.945 195.276 -585.827 195.669 -390.551 195.276 -585.827 195.276 -390.945 195.276 -390.551 195.276 -585.827 195.276 -390.551 195.276 -390.551 195.276 -390.945 195.276 -390.551 195.276 -390.551 195.669 -390.551 195.276 -390.551 195.276 -390.551 195.276 -195.669 195.276 -390.551 195.276 -390.551 195.276 -390.551 195.276 -195.276 195.276 -390.945 195.276 -390.551 195.276 -195.276 195.669 -390.551 195.276 -195.276 195.276 -390.551 195.276 -195.276 195.276 -390.551 195.276 -195.669 195.276 -390.551 195.276 -195.276 195.276 -390.551 195.276 -195.276 195.276 -195.276 195.669 -390.551 195.276 -195.669 195.276 -195.276 195.276 -390.551 195.276 -195.276 195.276 -195.276 195.276 -195.276 195.276 -390.551 195.276 -195.276 195.276 -195.276 195.669 -195.669 195.276 -195.276 195.276 -390.551 195.276 -195.276 195.276 -195.276 195.276 -195.276 195.276 -195.276 195.276 -195.276 195.276 -195.276 195.276 -195.276 195.276 -195.669 195.669 -195.276 195.276 -195.276 195.276 -195.276 195.276 -195.276 195.276 -195.276 195.276 -195.276 195.276 -195.276 195.276 -195.276 195.276 -195.276 195.276 -195.669 195.669 -195.276 195.276 -195.276 195.276 -195.276 195.276 -195.276 195.276 -195.276 195.276 -195.276 195.276 -195.276 195.276 -195.276 390.551 -195.276 195.276 -195.276 195.669 -195.669 195.276 -195.276 195.276 -195.276 390.551 -195.276 195.276 -195.276 195.276 -195.276 195.276 -195.276 390.551 -195.276 195.276 -195.276 195.669 -195.276 390.551 -195.669 195.276 -195.276 195.276 -195.276 390.551 -195.276 195.276 -195.276 390.551 -195.276 195.669 -195.276 390.551 -195.276 195.276 -195.276 390.551 -195.276 195.276 -195.276 390.551 -195.669 195.276 -195.276 390.551 -195.276 390.945 -195.276 195.276 -195.276 390.551 -195.276 390.551 -195.276 390.551 -195.276 195.669 -195.276 390.551 -195.276 390.551 -195.276 390.551 -195.669 390.551 -195.276 390.551 -195.276 390.945 -195.276 390.551 -195.276 390.551 -195.276 585.827 -195.276 390.551 -195.276 390.945 -195.276 585.827 -195.276 390.551 -195.669 585.827 -195.276 390.945 -195.276 585.827 -195.276 585.827 -195.276 585.827 -195.276 586.22 -195.276 585.827 -195.276 781.102 -195.276 586.22 -195.276 781.102 -195.276 781.102 -195.276 781.496 -195.669 976.378 -195.276 976.772 -195.276 1171.65 -195.276 1367.32 -195.276 1953.15 0 8984.25 195.276 1757.87 195.276 1562.6 195.276 1171.65 195.276 976.772 195.669 976.378 195.276 781.496 195.276 781.102 195.276 781.102 195.276 586.22 195.276 781.102 195.276 585.827 195.276 586.22 195.276 585.827 195.276 585.827 195.276 585.827 195.276 390.945 195.669 585.827 195.276 390.551 195.276 585.827 195.276 390.945 195.276 390.551 195.276 585.827 195.276 390.551 195.276 390.551 195.276 390.945 195.276 390.551 195.669 390.551 195.276 390.551 195.276 390.551 195.276 390.551 195.276 195.669 195.276 390.551 195.276 390.551 195.276 390.551 195.276 195.276 195.276 390.945 195.276 390.551 195.669 195.276 195.276 390.551 195.276 195.276 195.276 390.551 195.276 195.276 195.276 390.551 195.276 195.669 195.276 390.551 195.276 195.276 195.276 390.551 195.276 195.276 195.669 195.276 195.276 390.551 195.276 195.669 195.276 195.276 195.276 390.551 195.276 195.276 195.276 195.276 195.276 195.276 195.276 390.551 195.276 195.276 195.669 195.276 195.276 195.669 195.276 195.276 195.276 390.551 195.276 195.276 195.276 195.276 195.276 195.276 195.276 195.276 195.276 195.276 195.276 195.276 195.276 195.276 195.669 195.669 195.276 195.276 195.276 195.276 195.276 195.276 195.276 195.276 195.276 195.276 195.276 195.276 195.276 195.276 195.276 195.276 195.276 195.276 195.669 195.669 195.276 195.276 195.276 195.276 195.276 195.276 195.276 195.276 195.276 195.276 195.276 195.276 390.551 195.276 195.276 195.276 195.276 195.276 195.669 195.276 195.276 195.669 195.276 195.276 390.551 195.276 195.276 195.276 195.276 195.276 195.276 195.276 390.551 195.276 195.276 195.276 195.669 195.276 390.551 195.276 195.276 195.669 195.276 195.276 390.551 195.276 195.276 195.276 390.551 195.276 195.669 195.276 390.551 195.276 195.276 195.276 390.551 195.276 195.276 195.276 390.551 195.276 195.276 195.669 390.551 195.276 390.945 195.276 195.276 195.276 390.551 195.276 390.551 195.276 390.551 195.276 195.669 195.276 390.551 195.276 390.551 195.276 390.551 195.276 390.551 195.669 390.551 195.276 390.945 195.276 390.551 195.276 390.551 195.276 585.827 195.276 390.551 195.276 390.945 195.276 585.827 195.276 390.551 195.276 585.827 195.669 390.945 195.276 585.827 195.276 585.827 195.276 585.827 195.276 586.22 195.276 585.827 195.276 781.102 195.276 586.22 195.276 781.102 195.276 781.102 195.276 781.496 195.276 976.378 195.669 1172.05 195.276 976.378 195.276 1562.6 195.276 1757.87 195.276 8984.25 0 1757.87 -195.276 1562.6 -195.276 1171.65 -195.276 976.772 -195.276 976.378 -195.669 781.496 -195.276 781.102 -195.276 781.102 -195.276 586.22 -195.276 781.102 -195.276 585.827 -195.276 586.22 -195.276 585.827 -195.276 585.827 -195.276 585.827 -195.276 390.945 -195.276 585.827 -195.669 390.551 -195.276 585.827 -195.276 390.945 -195.276 390.551 -195.276 585.827 -195.276 390.551 -195.276 390.551 -195.276 390.945 -195.276 390.551 -195.276 390.551 -195.669 390.551 -195.276 390.551 -195.276 390.551 -195.276 195.669 -195.276 390.551 -195.276 390.551 -195.276 390.551 -195.276 195.276 -195.276 390.945 -195.276 390.551 -195.276 195.276 -195.669 390.551 -195.276 195.276 -195.276 390.551 -195.276 195.276 -195.276 390.551 -195.276 195.669 -195.276 390.551 -195.276 195.276 -195.276 390.551 -195.276 195.276 -195.276 195.276 -195.669 390.551 -195.276 195.669 -195.276 195.276 -195.276 390.551 -195.276 195.276 -195.276 195.276 -195.276 195.276 -195.276 390.551 -195.276 195.276 -195.276 195.276 -195.669 195.669 -195.276 195.276 -195.276 195.276 -195.276 390.551 -195.276 195.276 -195.276 195.276 -195.276 195.276 -195.276 195.276 -195.276 195.276 -195.276 195.276 -195.276 195.669 -195.669 195.276 -195.276 195.276 -195.276 195.276 -195.276 195.276 -195.276 195.276 -195.276 195.276 -195.276 195.276 -195.276 195.276 -195.276 195.276 -195.276 195.669 -195.669 195.276 -195.276 195.276 -195.276 195.276 -195.276 195.276 -195.276 195.276 -195.276 195.276 -195.276 195.276 -390.551 195.276 -195.276 195.276 -195.276 195.276 -195.669 195.669 -195.276 195.276 -195.276 195.276 -390.551 195.276 -195.276 195.276 -195.276 195.276 -195.276 195.276 -390.551 195.276 -195.276 195.276 -195.669 195.276 -390.551 195.669 -195.276 195.276 -195.276 195.276 -390.551 195.276 -195.276 195.276 -390.551 195.276 -195.669 195.276 -390.551 195.276 -195.276 195.276 -390.551 195.276 -195.276 195.276 -390.551 195.669 -195.276 195.276 -390.551 195.276 -390.945 195.276 -195.276 195.276 -390.551 195.276 -390.551 195.276 -390.551 195.276 -195.669 195.276 -390.551 195.276 -390.551 195.276 -390.551 195.669 -390.551 195.276 -390.551 195.276 -390.945 195.276 -390.551 195.276 -390.551 195.276 -585.827 195.276 -390.551 195.276 -390.945 195.276 -585.827 195.276 -390.551 195.669 -585.827 195.276 -390.945 195.276 -585.827 195.276 -585.827 195.276 -585.827 195.276 -586.22 195.276 -585.827 195.276 -781.102 195.276 -586.22 195.276 -781.102 195.276 -781.102 195.276 -781.496 195.669 -976.378 195.276 -976.772 195.276 -1171.65 195.276 -1562.6 195.276 -1757.87 0 -8984.25 -195.276 -1757.87 -195.276 -1562.6 -195.276 -1171.65 -195.276 -976.772 -195.669 -976.378 -195.276 -781.496 -195.276 -781.102 -195.276 -781.102 -195.276 -586.22 -195.276 -781.102 -195.276 -585.827 -195.276 -586.22 -195.276 -585.827 -195.276 -585.827 -195.276 -585.827 -195.276 -390.945 -195.669 -585.827 -195.276 -390.551 -195.276 -585.827 -195.276 -390.945 -195.276 -390.551 -195.276 -585.827 -195.276 -390.551 -195.276 -390.551 -195.276 -390.945 -195.276 -390.551 -195.669 -390.551 -195.276 -390.551 -195.276 -390.551 -195.276 -390.551 -195.276 -195.669 -195.276 -390.551 -195.276 -390.551 -195.276 -390.551 -195.276 -195.276 -195.276 -390.945 -195.276 -390.551 -195.669 -195.276 -195.276 -390.551 -195.276 -195.276 -195.276 -390.551 -195.276 -195.276 -195.276 -390.551 -195.276 -195.669 -195.276 -390.551 -195.276 -195.276 -195.276 -390.551 -195.276 -195.276 -195.669 -195.276 -195.276 -390.551 -195.276 -195.669 -195.276 -195.276 -195.276 -390.551 -195.276 -195.276 -195.276 -195.276 -195.276 -195.276 -195.276 -390.551 -195.276 -195.276 -195.669 -195.276 -195.276 -195.669 -195.276 -195.276 -195.276 -195.276 -195.276 -390.551 -195.276 -195.276 -195.276 -195.276 -195.276 -195.276 -195.276 -195.276 -195.276 -195.276 -195.276 -195.276 -195.669 -195.669 -195.276 -195.276 -195.276 -195.276 -195.276 -195.276 -195.276 -195.276 -195.276 -195.276 -195.276 -195.276 -195.276 -195.276 -195.276 -195.276 -195.276 -195.276 -195.669 -195.669 -195.276 -195.276 -195.276 -195.276 -195.276 -195.276 -195.276 -195.276 -195.276 -195.276 -195.276 -195.276 -195.276 -195.276 -390.551 -195.276 -195.276 -195.276 -195.669 -195.276 -195.276 -195.669 -195.276 -195.276 -390.551 -195.276 -195.276 -195.276 -195.276 -195.276 -195.276 -195.276 -390.551 -195.276 -195.276 -195.276 -195.669 -195.276 -390.551 -195.276 -195.276 -195.669 -195.276 -195.276 -390.551 -195.276 -195.276 -195.276 -390.551 -195.276 -195.669 -195.276 -390.551 -195.276 -195.276 -195.276 -390.551 -195.276 -195.276 -195.276 -390.551 -195.276 -195.276 -195.669 -390.551 -195.276 -390.945 -195.276 -195.276 -195.276 -390.551 -195.276 -390.551 -195.276 -390.551 -195.276 -195.669 -195.276 -390.551 -195.276 -390.551 -195.276 -390.551 -195.276 -390.551 -195.669 -390.551 -195.276 -390.945 -195.276 -390.551 -195.276 -390.551 -195.276 -585.827 -195.276 -390.551 -195.276 -390.945 -195.276 -585.827 -195.276 -390.551 -195.276 -585.827 -195.669 -390.945 -195.276 -585.827 -195.276 -585.827 -195.276 -585.827 -195.276 -586.22 -195.276 -585.827 -195.276 -781.102 -195.276 -586.22 -195.276 -781.102 -195.276 -781.102 -195.276 -781.496 -195.276 -976.378 -195.669 -976.772 -195.276 -1171.65 -195.276 -1562.6 -195.276 -1757.87 -195.276 -8984.25 0 -1757.87 195.276z"/>
    <path id="_106770792" class="fil0" d="M-633634 -776571l195.276 -1366.93 195.276 -781.496 195.276 -585.827 195.276 -585.827 195.669 -586.22 195.276 -390.551 195.276 -390.551 195.276 -390.551 195.276 -390.551 195.276 -390.945 195.276 -390.551 195.276 -195.276 195.276 -390.551 195.276 -195.276 195.276 -195.276 195.669 -390.551 195.276 -195.276 195.276 -195.669 195.276 -195.276 195.276 -195.276 195.276 -195.276 195.276 -195.276 195.276 -195.276 195.276 -195.276 195.276 -195.276 195.669 -195.276 195.276 -195.276 390.551 -195.669 195.276 -195.276 195.276 -195.276 390.551 -195.276 195.276 -195.276 390.551 -195.276 390.945 -195.276 390.551 -195.276 390.551 -195.276 390.551 -195.276 390.551 -195.276 586.22 -195.669 585.827 -195.276 585.827 -195.276 781.496 -195.276 1366.93 -195.276 3125.2 0 1366.93 195.276 781.496 195.276 585.827 195.276 585.827 195.276 586.22 195.669 390.551 195.276 390.551 195.276 390.551 195.276 390.551 195.276 390.945 195.276 390.551 195.276 195.276 195.276 390.551 195.276 195.276 195.276 195.276 195.276 390.551 195.669 195.276 195.276 195.669 195.276 195.276 195.276 195.276 195.276 195.276 195.276 195.276 195.276 195.276 195.276 195.276 195.276 195.276 195.276 195.276 195.669 195.276 195.276 195.669 390.551 195.276 195.276 195.276 195.276 195.276 390.551 195.276 195.276 195.276 390.551 195.276 390.945 195.276 390.551 195.276 390.551 195.276 390.551 195.276 390.551 195.669 586.22 195.276 585.827 195.276 585.827 195.276 781.496 195.276 1366.93 0 3125.2 -195.276 1366.93 -195.276 781.496 -195.276 585.827 -195.276 585.827 -195.669 586.22 -195.276 390.551 -195.276 390.551 -195.276 390.551 -195.276 390.551 -195.276 390.945 -195.276 390.551 -195.276 195.276 -195.276 390.551 -195.276 195.276 -195.276 195.276 -195.669 390.551 -195.276 195.276 -195.276 195.669 -195.276 195.276 -195.276 195.276 -195.276 195.276 -195.276 195.276 -195.276 195.276 -195.276 195.276 -195.276 195.276 -195.669 195.276 -195.276 195.276 -390.551 195.669 -195.276 195.276 -195.276 195.276 -390.551 195.276 -195.276 195.276 -390.551 195.276 -390.945 195.276 -390.551 195.276 -390.551 195.276 -390.551 195.276 -390.551 195.276 -586.22 195.669 -585.827 195.276 -585.827 195.276 -781.496 195.276 -1366.93 195.276 -3125.2 0 -1366.93 -195.276 -781.496 -195.276 -585.827 -195.276 -585.827 -195.276 -586.22 -195.669 -390.551 -195.276 -390.551 -195.276 -390.551 -195.276 -390.551 -195.276 -390.945 -195.276 -390.551 -195.276 -195.276 -195.276 -390.551 -195.276 -195.276 -195.276 -195.276 -195.276 -390.551 -195.669 -195.276 -195.276 -195.669 -195.276 -195.276 -195.276 -195.276 -195.276 -195.276 -195.276 -195.276 -195.276 -195.276 -195.276 -195.276 -195.276 -195.276 -195.276 -195.276 -195.669 -195.276 -195.276 -195.669 -390.551 -195.276 -195.276 -195.276 -195.276 -195.276 -390.551 -195.276 -195.276 -195.276 -390.551 -195.276 -390.945 -195.276 -390.551 -195.276 -390.551 -195.276 -390.551 -195.276 -390.551 -195.669 -586.22 -195.276 -585.827 -195.276 -585.827 -195.276 -781.496 -195.276 -1366.93 0 -3125.2zm32812.6 -12695.3l-195.276 390.551 -195.276 390.945 -195.276 195.276 0 390.551 -390.945 0 -195.276 195.276 -195.276 195.276 -585.827 195.276 -585.827 195.276 -976.772 0 -585.827 -195.276 -585.827 -195.276 -195.669 -195.276 -195.276 -195.276 -390.551 0 0 -390.551 -195.276 -195.276 -195.276 -195.669 -195.276 -585.827 -195.276 -585.827 0 -781.496 195.276 -781.102 195.276 -585.827 195.276 -195.276 195.276 -195.276 0 -390.945 390.551 0 195.276 -195.276 195.669 -195.276 585.827 -195.276 781.102 -195.276 586.22 0 781.102 195.276 390.551 195.276 390.551 195.276 195.276 195.276 195.276 195.669 195.669 195.276 195.276 195.276 195.276 390.551 195.276 390.551 195.276 781.102 0 586.22 -195.276 781.102zm-31640.6 -9179.53l-1367.32 195.276 -781.102 195.276 -781.496 195.276 -585.827 195.276 -390.551 195.276 -586.22 195.276 -390.551 195.276 -195.276 195.276 -390.551 195.669 -390.551 195.276 -195.276 195.276 -195.276 195.276 -195.276 195.276 -390.945 195.276 -195.276 195.276 -195.276 195.276 -195.276 195.276 -195.276 390.945 -195.276 195.276 -195.276 195.276 -195.276 195.276 -195.276 390.551 -195.669 195.276 -195.276 390.551 -195.276 390.551 -195.276 586.22 -195.276 390.551 -195.276 585.827 -195.276 781.496 -195.276 781.102 -195.276 1367.32 -195.276 3124.8 0 20312.6 195.276 3124.8 195.276 1367.32 195.276 781.102 195.276 781.496 195.276 585.827 195.276 390.551 195.276 586.22 195.276 390.551 195.276 195.276 195.669 390.551 195.276 390.551 195.276 195.276 195.276 195.276 195.276 195.276 195.276 390.945 195.276 195.276 195.276 195.276 195.276 195.276 390.945 195.276 195.276 195.276 195.276 195.276 195.276 195.276 390.551 195.276 390.551 195.669 195.276 195.276 390.551 195.276 586.22 195.276 390.551 195.276 585.827 195.276 781.496 195.276 781.102 195.276 1367.32 195.276 3320.08 195.276 19922 0 3320.08 -195.276 1367.32 -195.276 781.102 -195.276 781.496 -195.276 585.827 -195.276 390.551 -195.276 586.22 -195.276 390.551 -195.276 195.276 -195.276 390.551 -195.669 195.276 -195.276 390.551 -195.276 195.276 -195.276 195.276 -195.276 195.669 -195.276 390.551 -195.276 195.276 -195.276 195.276 -390.551 195.276 -195.669 195.276 -195.276 195.276 -195.276 195.276 -390.551 195.276 -195.276 195.669 -390.551 195.276 -195.276 195.276 -390.551 195.276 -586.22 195.276 -390.551 195.276 -585.827 195.276 -781.496 195.276 -781.102 195.276 -1367.32 195.276 -3320.08 0 -19922 -195.276 -3320.08 -195.276 -1367.32 -195.276 -781.102 -195.276 -781.496 -195.276 -585.827 -195.276 -390.551 -195.276 -586.22 -195.276 -390.551 -195.276 -390.551 -195.669 -195.276 -195.276 -390.551 -195.276 -195.276 -195.276 -195.276 -195.276 -195.276 -195.276 -390.945 -195.276 -195.276 -195.276 -195.276 -195.276 -195.276 -390.945 -195.276 -195.276 -195.276 -195.276 -195.276 -195.276 -195.276 -390.551 -195.276 -195.276 -195.669 -390.551 -195.276 -390.551 -195.276 -586.22 -195.276 -390.551 -195.276 -585.827 -195.276 -781.496 -195.276 -781.102 -195.276 -1367.32 -195.276 -3320.08 -195.276 -19922 0 -3320.08 195.276z"/>
    <polygon id="_106771080" class="fil0" points="-621915,-784383 -622502,-784188 -623087,-783993 -623478,-783797 -623869,-783602 -624259,-783407 -624455,-783211 -624845,-783016 -625041,-782821 -625236,-782626 -625626,-782430 -625822,-782235 -626017,-782039 -626212,-781844 -626407,-781649 -626603,-781454 -626798,-781063 -626994,-780868 -627189,-780672 -627384,-780282 -627580,-780086 -627775,-779696 -627970,-779305 -628165,-778915 -628361,-778329 -628556,-777743 -628752,-776961 -628752,-773055 -628556,-772274 -628361,-771688 -628165,-771102 -627970,-770711 -627775,-770321 -627580,-769930 -627384,-769735 -627189,-769344 -626994,-769149 -626798,-768954 -626603,-768758 -626407,-768368 -626212,-768172 -626017,-767977 -625822,-767782 -625431,-767586 -625236,-767391 -625041,-767196 -624845,-767000 -624455,-766805 -624259,-766610 -623869,-766415 -623478,-766219 -623087,-766024 -622502,-765829 -621915,-765633 -621134,-765438 -617228,-765438 -616447,-765633 -615861,-765829 -615275,-766024 -614884,-766219 -614494,-766415 -614103,-766610 -613907,-766805 -613517,-767000 -613322,-767196 -613126,-767391 -612931,-767586 -612541,-767782 -612345,-767977 -612150,-768172 -611955,-768368 -611759,-768758 -611564,-768954 -611369,-769149 -611173,-769344 -610978,-769735 -610783,-769930 -610587,-770321 -610392,-770711 -610197,-771102 -610002,-771688 -609806,-772274 -609611,-773055 -609611,-776961 -609806,-777743 -610002,-778329 -610197,-778915 -610392,-779305 -610587,-779696 -610783,-780086 -610978,-780282 -611173,-780672 -611369,-780868 -611564,-781063 -611759,-781258 -611955,-781649 -612150,-781844 -612345,-782039 -612541,-782235 -612931,-782430 -613126,-782626 -613322,-782821 -613517,-783016 -613907,-783211 -614103,-783407 -614494,-783602 -614884,-783797 -615275,-783993 -615861,-784188 -616447,-784383 -617228,-784579 -621134,-784579 "/>
   </g>
  </g>
  <polygon class="fil0" points="221043,-606582 219480,-606387 218504,-606191 217331,-605996 216355,-605800 215574,-605605 214793,-605410 214011,-605215 213425,-605019 212644,-604824 212058,-604629 211472,-604433 210886,-604238 210300,-604043 209715,-603848 209324,-603652 208738,-603457 208347,-603261 207761,-603066 207370,-602871 206980,-602676 206394,-602480 206004,-602285 205613,-602090 205222,-601894 204831,-601699 204441,-601504 204050,-601308 203660,-601113 203269,-600918 203074,-600722 202683,-600527 202293,-600332 201902,-600137 201707,-599941 201316,-599746 200925,-599550 200730,-599355 200339,-599160 200144,-598965 199754,-598769 199558,-598574 199167,-598379 198972,-598183 198581,-597988 198386,-597793 197996,-597598 197800,-597402 197605,-597207 197215,-597011 197019,-596816 196824,-596621 196433,-596426 196238,-596230 196043,-596035 195847,-595840 195457,-595644 195261,-595449 195066,-595254 194870,-595058 194675,-594863 194285,-594668 194089,-594472 193894,-594277 193699,-594082 193504,-593887 193308,-593691 193113,-593496 192917,-593300 192722,-593105 192527,-592910 192331,-592715 192136,-592519 191941,-592324 191746,-592129 191550,-591933 191355,-591738 191160,-591543 190965,-591348 190769,-591152 190574,-590957 190378,-590761 190183,-590566 189988,-590371 189793,-590176 189597,-589980 189402,-589785 189207,-589394 189011,-589199 188816,-589004 188620,-588808 188425,-588613 188230,-588222 188035,-588027 187839,-587832 187644,-587637 187449,-587246 187254,-587050 187058,-586855 186863,-586465 186667,-586269 186472,-586074 186277,-585683 186081,-585488 185886,-585098 185691,-584902 185496,-584511 185300,-584316 185105,-583926 184910,-583730 184715,-583340 184519,-583144 184324,-582754 184128,-582363 183933,-582168 183738,-581777 183543,-581387 183347,-580996 183152,-580800 182957,-580410 182761,-580019 182566,-579629 182370,-579238 182175,-578848 181980,-578457 181785,-578066 181589,-577676 181394,-577090 181199,-576699 181004,-576308 180808,-575722 180613,-575332 180417,-574746 180222,-574355 180027,-573769 179831,-573183 179636,-572598 179441,-572011 179246,-571426 179050,-570644 178855,-570058 178660,-569277 178465,-568496 178269,-567715 178074,-566738 177878,-565761 177683,-564590 177488,-563222 177293,-561269 177293,-552285 177488,-550527 177683,-548965 177878,-547793 178074,-546816 178269,-545840 178465,-545058 178660,-544277 178855,-543496 179050,-542910 179246,-542129 179441,-541543 179636,-540957 179831,-540371 180027,-539785 180222,-539199 180417,-538808 180613,-538222 180808,-537832 181004,-537246 181199,-536855 181394,-536465 181589,-535879 181785,-535488 181980,-535098 182175,-534707 182370,-534316 182566,-533926 182761,-533535 182957,-533144 183152,-532754 183347,-532558 183543,-532168 183738,-531777 183933,-531387 184128,-531191 184324,-530800 184519,-530410 184715,-530215 184910,-529824 185105,-529629 185300,-529238 185496,-529043 185691,-528652 185886,-528457 186081,-528066 186277,-527871 186472,-527480 186667,-527285 186863,-527090 187058,-526699 187254,-526504 187449,-526308 187644,-525918 187839,-525722 188035,-525527 188230,-525332 188425,-524941 188620,-524746 188816,-524550 189011,-524355 189207,-524160 189402,-523769 189597,-523574 189793,-523379 189988,-523183 190183,-522988 190378,-522793 190574,-522598 190769,-522402 190965,-522207 191160,-522011 191355,-521816 191550,-521621 191746,-521426 191941,-521230 192136,-521035 192331,-520840 192527,-520644 192722,-520449 192917,-520254 193113,-520058 193308,-519863 193504,-519668 193699,-519472 193894,-519277 194089,-519082 194285,-518887 194675,-518691 194870,-518496 195066,-518300 195261,-518105 195457,-517910 195847,-517715 196043,-517519 196238,-517324 196433,-517129 196824,-516933 197019,-516738 197215,-516543 197605,-516348 197800,-516152 197996,-515957 198386,-515761 198581,-515566 198972,-515371 199167,-515176 199558,-514980 199754,-514785 200144,-514590 200339,-514394 200730,-514199 200925,-514004 201316,-513808 201707,-513613 201902,-513418 202293,-513222 202683,-513027 203074,-512832 203269,-512637 203660,-512441 204050,-512246 204441,-512050 204831,-511855 205222,-511660 205613,-511465 206004,-511269 206589,-511074 206980,-510879 207370,-510683 207761,-510488 208347,-510293 208738,-510098 209324,-509902 209715,-509707 210300,-509511 210886,-509316 211472,-509121 212058,-508926 212644,-508730 213425,-508535 214011,-508340 214793,-508144 215574,-507949 216355,-507754 217331,-507558 218504,-507363 219480,-507168 221043,-506972 222800,-506777 228269,-506777 228269,-545840 217527,-545840 217527,-558144 228269,-558144 228465,-569472 228660,-571035 228855,-572207 229050,-572988 229246,-573574 229441,-574160 229636,-574746 229831,-575137 230027,-575527 230222,-576113 230418,-576308 230613,-576699 230808,-577090 231004,-577480 231199,-577676 231394,-577871 231589,-578261 231785,-578457 231980,-578652 232175,-578848 232370,-579238 232566,-579433 232761,-579629 232957,-579824 233347,-580019 233543,-580215 233738,-580410 233933,-580605 234324,-580800 234519,-580996 234715,-581191 235105,-581387 235496,-581582 235691,-581777 236081,-581972 236472,-582168 237058,-582363 237449,-582558 238035,-582754 238620,-582949 239207,-583144 240183,-583340 241160,-583535 243308,-583730 245652,-583730 250730,-583535 253074,-583340 253855,-583340 253855,-572402 245847,-572402 244675,-572207 244089,-572011 243504,-571816 243113,-571621 242918,-571426 242527,-571230 242331,-571035 242136,-570840 241941,-570449 241746,-570254 241550,-569863 241355,-569472 241160,-568887 240965,-567715 240965,-558144 253269,-557949 253074,-556582 252878,-555019 252683,-553457 252488,-551894 252293,-550527 252097,-548965 251902,-547402 251902,-545840 240965,-545840 240965,-508535 241160,-508535 241941,-508730 242527,-508926 243113,-509121 243699,-509316 244285,-509511 244870,-509707 245261,-509902 245847,-510098 246238,-510293 246824,-510488 247215,-510683 247605,-510879 247996,-511074 248581,-511269 248972,-511465 249363,-511660 249754,-511855 250144,-512050 250535,-512246 250925,-512441 251120,-512637 251511,-512832 251902,-513027 252293,-513222 252683,-513418 252878,-513613 253269,-513808 253660,-514004 253855,-514199 254246,-514394 254441,-514590 254831,-514785 255027,-514980 255418,-515176 255613,-515371 256004,-515566 256199,-515761 256589,-515957 256785,-516152 256980,-516348 257370,-516543 257566,-516738 257761,-516933 258152,-517129 258347,-517324 258543,-517519 258738,-517715 259128,-517910 259324,-518105 259519,-518300 259715,-518496 259910,-518691 260300,-518887 260496,-519082 260691,-519277 260886,-519472 261081,-519668 261277,-519863 261472,-520058 261668,-520254 261863,-520449 262058,-520644 262254,-520840 262449,-521035 262644,-521230 262839,-521426 263035,-521621 263230,-521816 263425,-522011 263620,-522207 263816,-522402 264011,-522598 264207,-522793 264402,-522988 264597,-523183 264793,-523379 264988,-523574 265183,-523769 265378,-524160 265574,-524355 265769,-524550 265965,-524746 266160,-524941 266355,-525332 266550,-525527 266746,-525722 266941,-525918 267136,-526308 267331,-526504 267527,-526699 267722,-527090 267918,-527285 268113,-527480 268308,-527871 268504,-528066 268699,-528457 268894,-528652 269089,-529043 269285,-529238 269480,-529629 269675,-529824 269870,-530215 270066,-530410 270261,-530800 270457,-531191 270652,-531387 270847,-531777 271043,-532168 271238,-532558 271433,-532754 271628,-533144 271824,-533535 272019,-533926 272215,-534316 272410,-534707 272605,-535098 272800,-535488 272996,-536074 273191,-536465 273386,-536855 273581,-537246 273777,-537832 273972,-538222 274168,-538808 274363,-539199 274558,-539785 274754,-540371 274949,-540957 275144,-541543 275339,-542129 275535,-542910 275730,-543496 275925,-544277 276120,-545058 276316,-545840 276511,-546816 276707,-547988 276902,-549160 277097,-550527 277293,-552285 277293,-561269 277097,-563027 276902,-564590 276707,-565761 276511,-566738 276316,-567715 276120,-568496 275925,-569277 275730,-570058 275535,-570644 275339,-571426 275144,-572011 274949,-572598 274754,-573183 274558,-573769 274363,-574355 274168,-574746 273972,-575332 273777,-575722 273581,-576308 273386,-576699 273191,-577090 272996,-577480 272800,-578066 272605,-578457 272410,-578848 272215,-579238 272019,-579629 271824,-580019 271628,-580410 271433,-580800 271238,-580996 271043,-581387 270847,-581777 270652,-582168 270457,-582363 270261,-582754 270066,-583144 269870,-583340 269675,-583730 269480,-583926 269285,-584316 269089,-584511 268894,-584902 268699,-585098 268504,-585488 268308,-585683 268113,-586074 267918,-586269 267722,-586465 267527,-586855 267331,-587050 267136,-587246 266941,-587637 266746,-587832 266550,-588027 266355,-588222 266160,-588613 265965,-588808 265769,-589004 265574,-589199 265378,-589394 265183,-589785 264988,-589980 264793,-590176 264597,-590371 264402,-590566 264207,-590761 264011,-590957 263816,-591152 263620,-591348 263425,-591543 263230,-591738 263035,-591933 262839,-592129 262644,-592324 262449,-592519 262254,-592715 262058,-592910 261863,-593105 261668,-593300 261472,-593496 261277,-593691 261081,-593887 260886,-594082 260691,-594277 260496,-594472 260300,-594668 259910,-594863 259715,-595058 259519,-595254 259324,-595449 259128,-595644 258738,-595840 258543,-596035 258347,-596230 258152,-596426 257761,-596621 257566,-596816 257370,-597011 256980,-597207 256785,-597402 256589,-597598 256199,-597793 256004,-597988 255613,-598183 255418,-598379 255027,-598574 254831,-598769 254441,-598965 254246,-599160 253855,-599355 253660,-599550 253269,-599746 252878,-599941 252683,-600137 252293,-600332 251902,-600527 251511,-600722 251316,-600918 250925,-601113 250535,-601308 250144,-601504 249754,-601699 249363,-601894 248972,-602090 248581,-602285 248191,-602480 247605,-602676 247215,-602871 246824,-603066 246238,-603261 245847,-603457 245261,-603652 244870,-603848 244285,-604043 243699,-604238 243113,-604433 242527,-604629 241941,-604824 241160,-605019 240574,-605215 239793,-605410 239011,-605605 238230,-605800 237254,-605996 236277,-606191 235105,-606387 233543,-606582 231785,-606777 222800,-606777 "/>
  <path class="fil0" d="M-586690 -667629l-195.276 585.827 -195.276 390.945 -195.669 195.276 -195.276 390.551 -195.276 195.276 -195.276 390.551 -195.276 195.276 -195.276 195.276 -195.276 390.945 -195.276 195.276 -195.276 195.276 -195.669 195.276 -195.276 195.276 -195.276 195.276 -195.276 195.276 -390.551 195.276 -195.276 195.276 -195.276 195.276 -390.551 195.276 -195.276 195.669 -195.276 195.276 0 195.276 781.102 0 1171.65 -195.276 781.496 -195.276 781.102 -195.669 781.496 -195.276 585.827 -195.276 585.827 -195.276 390.551 -195.276 195.276 0 -195.276 195.276 -195.276 390.551 -195.276 195.276 -195.276 195.669 -195.276 195.276 -195.276 390.551 -195.276 195.276 -195.276 195.276 -195.276 195.276 -195.276 195.276 -195.669 195.276 -195.276 195.276 -195.276 195.669 -195.276 195.276 -195.276 195.276 -195.276 195.276 -195.276 195.276 -195.276 195.276 -195.276 195.276 -390.945 195.276 -195.276 195.276 -195.276 195.276 -195.276 195.276 -390.551 195.669 -195.276 195.276 0 1171.65 0 781.496 -195.276 3124.8 -195.276 1367.32 -195.276 1171.65 -195.276 976.772 -195.669 781.102 -195.276 781.102 -195.276 586.22 -195.276 585.827 -195.276 585.827 -195.276 586.22 -195.276 585.827 -195.276 390.551 -195.276 585.827 -195.276 390.945 -195.669 585.827 -195.276 390.551 -195.276 390.551 -195.276 390.551 -195.276 390.945 -195.276 390.551 -195.276 390.551 -195.276 390.551 -195.276 195.276 -195.276 390.551 -195.276 390.945 -195.669 195.276 -195.276 390.551 -195.276 390.551 -195.276 195.276 -195.276 390.551 -195.276 195.276 -195.276 195.669 -195.276 390.551 -195.276 195.276 -195.276 390.551 -195.276 195.276 -195.669 195.276 -195.276 195.276 -195.276 390.945 -195.276 195.276 -195.276 195.276 -195.276 195.276 -195.276 195.276 -195.276 390.551 -195.276 195.276 -195.276 195.276 -195.669 195.276 -195.276 195.276 -195.276 195.669 -195.276 195.276 -195.276 195.276 -195.276 195.276 -195.276 195.276 -195.276 195.276 -195.276 195.276 -390.551 195.276 -195.669 195.276 -195.276 195.276 -195.276 195.669 -195.276 195.276 -195.276 195.276 -390.551 195.276 -195.276 195.276 -195.276 195.276 -390.945 195.276 -195.276 195.276 -195.276 195.276 -390.551 195.276 -195.276 195.276 -390.551 195.669 -195.276 195.276 -390.551 195.276 -390.945 195.276 -195.276 195.276 -390.551 195.276 -390.551 195.276 -390.551 195.276 -195.276 195.276 -390.945 195.276 -390.551 195.276 -390.551 195.669 -585.827 195.276 -390.551 195.276 -390.945 195.276 -585.827 195.276 -585.827 195.276 -390.551 195.276 -586.22 195.276 -585.827 195.276 -781.102 195.276 -781.496 195.669 -781.102 195.276 -976.378 195.276 -976.772 195.276 -1367.32 195.276 -2148.43 195.276 -4296.85 0 -1953.15 -195.276 -1366.93 -195.276 -976.772 -195.276 -976.378 -195.276 -781.496 -195.276 -585.827 -195.669 -781.102 -195.276 -586.22 -195.276 -585.827 -195.276 -585.827 -195.276 -390.551 -195.276 -586.22 -195.276 -390.551 -195.276 -390.551 -195.276 -585.827 -195.276 -390.551 -195.669 -390.945 -195.276 -390.551 -195.276 -390.551 -195.276 -390.551 -195.276 -195.276 -195.276 -390.945 -195.276 -390.551 -195.276 -390.551 -195.276 4882.68 0 1367.32 -195.276 976.772 -195.276 781.102 -195.669 781.102 -195.276 586.22 -195.276 585.827 -195.276 390.551 -195.276 585.827 -195.276 390.945 -195.276 585.827 -195.276 390.551 -195.276 390.551 -195.276 390.551 -195.276 390.945 -195.669 195.276 -195.276 390.551 -195.276 390.551 -195.276 195.276 -195.276 390.551 -195.276 195.276 -195.276 390.945 -195.276 195.276 -195.276 195.276 -195.276 390.551 -195.669 0 -390.551 -1367.32 -195.276 -976.378 -195.276 -781.102 -195.276 -586.22 -195.276 -585.827 -195.276 -390.551 -195.276 -390.551 -195.276 -390.945 -195.276 -195.276 -195.669 -390.551 -195.276 -195.276 -195.276 -390.551 -195.276 -195.276 -195.276 -195.276 -195.276 -195.276 -195.276 -390.945 -195.276 -195.276 -195.276 -195.276 -195.276 -195.276 -390.945 -195.276 -195.276 -195.276 -195.276 -195.276 -195.276 -195.276 -195.276 -195.276 -390.551 -195.276 -390.551 -195.669 -195.276 -195.276 -390.945 -195.276 -390.551 -195.276 -390.551 -195.276 -585.827 3711.02 -195.276 976.378 -195.276 195.276 -195.669 0 -195.276 -781.102 -195.276 -585.827 -195.276 -586.22 -195.276 -390.551 -195.276 -390.551 -195.276 -390.551 -195.276 -390.551 -195.276 -390.551 -195.276 -195.669 -195.669 -390.551 -195.276 -195.276 -195.276 -195.276 -195.276 -390.551 -195.276 -195.276 -195.276 -195.276 -195.276 -195.276 -195.276 -195.669 -195.276 -195.276 -195.276 -195.276 -390.551 -195.276 -195.669 -195.276 -195.276 -195.276 -195.276 -195.276 -390.551 -195.276 -390.551 -195.276 -195.276 -195.276 -390.945 -195.276 -390.551 -195.276 -390.551 -195.669 -585.827 -195.276 -585.827 -195.276 -586.22 -195.276 -976.378 -185.433 -1591.73 380.709 224.409 390.551 195.276 586.22 195.276 390.551 195.276 781.102 195.669 976.772 195.276 1562.2 0 0 -195.276 -195.276 -195.669 -195.276 -195.276 -195.276 -195.276 -390.551 -195.276 -195.276 -195.276 -195.276 -195.276 -195.276 -195.276 -195.276 -195.276 -195.669 -195.276 -195.276 -195.276 -195.276 -195.276 -195.276 -390.945 -195.276 -195.276 -195.276 -195.276 -195.276 -390.551 -195.276 -390.551 -195.276 -195.276 -195.276 -390.551 -195.276 -390.945 -195.276 -585.827 -195.669 -390.551 -195.276 -585.827 -195.276 -976.772 -195.276 -1171.65 0 -1953.15 195.276 -1367.32 195.276 -781.102 195.276 -586.22 195.669 -585.827 195.276 -390.551 195.276 -390.551 9.84252 -420.079 380.709 224.803 195.276 390.551 195.276 195.276 195.276 195.276 195.276 195.276 195.276 195.276 195.276 195.276 195.276 195.276 195.669 195.276 195.276 195.276 195.276 195.669 195.276 195.276 195.276 195.276 195.276 195.276 195.276 195.276 195.276 195.276 195.276 195.276 195.276 195.276 195.669 195.276 390.551 195.276 195.276 195.276 195.276 195.669 195.276 195.276 195.276 195.276 390.551 195.276 195.276 195.276 195.276 195.276 390.945 195.276 195.276 195.276 195.276 195.276 390.551 195.276 195.276 195.669 390.551 195.276 195.276 195.276 390.945 195.276 390.551 195.276 195.276 195.276 390.551 195.276 390.551 195.276 390.551 195.276 390.945 195.276 390.551 195.276 390.551 195.669 390.551 195.276 390.551 195.276 390.945 195.276 390.551 195.276 585.827 195.276 390.551 195.276 586.22 195.276 585.827 195.276 585.827 195.276 585.827 195.669 781.496 195.276 781.102 195.276 781.102 195.276 976.772 195.276 1172.05 195.276 1366.93 195.276 1953.15 0 0 -976.378 0 -3320.47 195.276 -976.378 195.276 -781.496 195.276 -585.827 195.669 -390.551 195.276 -390.945 195.276 -390.551 195.276 -390.551 195.276 -390.551 195.276 -195.276 195.276 -390.551 195.276 -195.276 195.276 -390.945 195.276 -195.276 195.276 -195.276 195.276 -195.276 195.669 -195.276 195.276 -195.276 195.276 -195.276 195.276 -195.276 195.276 -195.276 390.551 -195.276 195.276 -195.669 195.276 -195.276 390.945 -195.276 195.276 -195.276 390.551 -195.276 390.551 -195.276 390.551 -195.276 390.551 -195.276 586.22 -195.276 585.827 -195.276 781.102 -195.669 1172.05 -195.276 2538.98 0 976.772 195.276 781.102 195.669 585.827 195.276 586.22 195.276 390.551 195.276 390.551 195.276 390.551 195.276 390.551 195.276 195.276 195.276 390.945 195.276 195.276 195.276 390.551 195.669 195.276 195.276 195.276 195.276 195.276 195.276 195.276 195.276 195.276 195.276 195.276 195.276 390.945 0 976.378 -195.276 585.827 -195.276 781.496 -195.276 585.827 -195.276 585.827 -195.276 390.551 -195.276 586.22 -195.669 390.551 -195.276 390.551 -195.276 390.551 -195.276 390.945 -195.276 390.551 -195.276 195.276 0 -195.276 390.551zm-32617.3 -29296.9l-1562.6 195.276 -976.378 195.276 -1172.05 195.276 -976.378 195.669 -781.496 195.276 -781.102 195.276 -781.102 195.276 -586.22 195.276 -781.102 195.276 -585.827 195.276 -586.22 195.276 -585.827 195.276 -585.827 195.276 -585.827 195.276 -390.945 195.276 -585.827 195.669 -390.551 195.276 -585.827 195.276 -390.945 195.276 -390.551 195.276 -585.827 195.276 -390.551 195.276 -390.551 195.276 -390.945 195.276 -390.551 195.276 -390.551 195.669 -390.551 195.276 -390.551 195.276 -390.551 195.276 -195.669 195.276 -390.551 195.276 -390.551 195.276 -390.551 195.276 -195.276 195.276 -390.945 195.276 -390.551 195.276 -195.276 195.669 -390.551 195.276 -195.276 195.276 -390.551 195.276 -195.276 195.276 -390.551 195.276 -195.669 195.276 -390.551 195.276 -195.276 195.276 -390.551 195.276 -195.276 195.276 -195.276 195.669 -390.551 195.276 -195.669 195.276 -195.276 195.276 -390.551 195.276 -195.276 195.276 -195.276 195.276 -195.276 195.276 -390.551 195.276 -195.276 195.276 -195.276 195.669 -195.669 195.276 -195.276 195.276 -390.551 195.276 -195.276 195.276 -195.276 195.276 -195.276 195.276 -195.276 195.276 -195.276 195.276 -195.276 195.276 -195.276 195.276 -195.669 195.669 -195.276 195.276 -195.276 195.276 -195.276 195.276 -195.276 195.276 -195.276 195.276 -195.276 195.276 -195.276 195.276 -195.276 195.276 -195.276 195.276 -195.669 195.669 -195.276 195.276 -195.276 195.276 -195.276 195.276 -195.276 195.276 -195.276 195.276 -195.276 195.276 -195.276 195.276 -195.276 390.551 -195.276 195.276 -195.276 195.669 -195.669 195.276 -195.276 195.276 -195.276 390.551 -195.276 195.276 -195.276 195.276 -195.276 195.276 -195.276 390.551 -195.276 195.276 -195.276 195.669 -195.276 390.551 -195.669 195.276 -195.276 195.276 -195.276 390.551 -195.276 195.276 -195.276 390.551 -195.276 195.669 -195.276 390.551 -195.276 195.276 -195.276 390.551 -195.276 195.276 -195.276 390.551 -195.669 195.276 -195.276 390.551 -195.276 390.945 -195.276 195.276 -195.276 390.551 -195.276 390.551 -195.276 390.551 -195.276 195.669 -195.276 390.551 -195.276 390.551 -195.276 390.551 -195.669 390.551 -195.276 390.551 -195.276 390.945 -195.276 390.551 -195.276 390.551 -195.276 585.827 -195.276 390.551 -195.276 390.945 -195.276 585.827 -195.276 390.551 -195.669 585.827 -195.276 390.945 -195.276 585.827 -195.276 585.827 -195.276 585.827 -195.276 586.22 -195.276 585.827 -195.276 781.102 -195.276 586.22 -195.276 781.102 -195.276 781.102 -195.276 781.496 -195.669 976.378 -195.276 976.772 -195.276 1171.65 -195.276 1367.32 -195.276 1953.15 0 8984.25 195.276 1757.87 195.276 1562.6 195.276 1171.65 195.276 976.772 195.669 976.378 195.276 781.496 195.276 781.102 195.276 781.102 195.276 586.22 195.276 781.102 195.276 585.827 195.276 586.22 195.276 585.827 195.276 585.827 195.276 585.827 195.276 390.945 195.669 585.827 195.276 390.551 195.276 585.827 195.276 390.945 195.276 390.551 195.276 585.827 195.276 390.551 195.276 390.551 195.276 390.945 195.276 390.551 195.669 390.551 195.276 390.551 195.276 390.551 195.276 390.551 195.276 195.669 195.276 390.551 195.276 390.551 195.276 390.551 195.276 195.276 195.276 390.945 195.276 390.551 195.669 195.276 195.276 390.551 195.276 195.276 195.276 390.551 195.276 195.276 195.276 390.551 195.276 195.669 195.276 390.551 195.276 195.276 195.276 390.551 195.276 195.276 195.669 195.276 195.276 390.551 195.276 195.669 195.276 195.276 195.276 390.551 195.276 195.276 195.276 195.276 195.276 195.276 195.276 390.551 195.276 195.276 195.669 195.276 195.276 195.669 195.276 195.276 195.276 390.551 195.276 195.276 195.276 195.276 195.276 195.276 195.276 195.276 195.276 195.276 195.276 195.276 195.276 195.276 195.669 195.669 195.276 195.276 195.276 195.276 195.276 195.276 195.276 195.276 195.276 195.276 195.276 195.276 195.276 195.276 195.276 195.276 195.276 195.276 195.669 195.669 195.276 195.276 195.276 195.276 195.276 195.276 195.276 195.276 195.276 195.276 195.276 195.276 390.551 195.276 195.276 195.276 195.276 195.276 195.669 195.276 195.276 195.669 195.276 195.276 390.551 195.276 195.276 195.276 195.276 195.276 195.276 195.276 390.551 195.276 195.276 195.276 195.669 195.276 390.551 195.276 195.276 195.669 195.276 195.276 390.551 195.276 195.276 195.276 390.551 195.276 195.669 195.276 390.551 195.276 195.276 195.276 390.551 195.276 195.276 195.276 390.551 195.276 195.276 195.669 390.551 195.276 390.945 195.276 195.276 195.276 390.551 195.276 390.551 195.276 390.551 195.276 195.669 195.276 390.551 195.276 390.551 195.276 390.551 195.276 390.551 195.669 390.551 195.276 390.945 195.276 390.551 195.276 390.551 195.276 585.827 195.276 390.551 195.276 390.945 195.276 585.827 195.276 390.551 195.276 585.827 195.669 390.945 195.276 585.827 195.276 585.827 195.276 585.827 195.276 586.22 195.276 585.827 195.276 781.102 195.276 586.22 195.276 781.102 195.276 781.102 195.276 781.496 195.276 976.378 195.669 1172.05 195.276 976.378 195.276 1562.6 195.276 1757.87 195.276 8984.25 0 1757.87 -195.276 1562.6 -195.276 1171.65 -195.276 976.772 -195.276 976.378 -195.669 781.496 -195.276 781.102 -195.276 781.102 -195.276 586.22 -195.276 781.102 -195.276 585.827 -195.276 586.22 -195.276 585.827 -195.276 585.827 -195.276 585.827 -195.276 390.945 -195.276 585.827 -195.669 390.551 -195.276 585.827 -195.276 390.945 -195.276 390.551 -195.276 585.827 -195.276 390.551 -195.276 390.551 -195.276 390.945 -195.276 390.551 -195.276 390.551 -195.669 390.551 -195.276 390.551 -195.276 390.551 -195.276 195.669 -195.276 390.551 -195.276 390.551 -195.276 390.551 -195.276 195.276 -195.276 390.945 -195.276 390.551 -195.276 195.276 -195.669 390.551 -195.276 195.276 -195.276 390.551 -195.276 195.276 -195.276 390.551 -195.276 195.669 -195.276 390.551 -195.276 195.276 -195.276 390.551 -195.276 195.276 -195.276 195.276 -195.669 390.551 -195.276 195.669 -195.276 195.276 -195.276 390.551 -195.276 195.276 -195.276 195.276 -195.276 195.276 -195.276 390.551 -195.276 195.276 -195.276 195.276 -195.669 195.669 -195.276 195.276 -195.276 195.276 -195.276 390.551 -195.276 195.276 -195.276 195.276 -195.276 195.276 -195.276 195.276 -195.276 195.276 -195.276 195.276 -195.276 195.669 -195.669 195.276 -195.276 195.276 -195.276 195.276 -195.276 195.276 -195.276 195.276 -195.276 195.276 -195.276 195.276 -195.276 195.276 -195.276 195.276 -195.276 195.669 -195.669 195.276 -195.276 195.276 -195.276 195.276 -195.276 195.276 -195.276 195.276 -195.276 195.276 -195.276 195.276 -390.551 195.276 -195.276 195.276 -195.276 195.276 -195.669 195.669 -195.276 195.276 -195.276 195.276 -390.551 195.276 -195.276 195.276 -195.276 195.276 -195.276 195.276 -390.551 195.276 -195.276 195.276 -195.669 195.276 -390.551 195.669 -195.276 195.276 -195.276 195.276 -390.551 195.276 -195.276 195.276 -390.551 195.276 -195.669 195.276 -390.551 195.276 -195.276 195.276 -390.551 195.276 -195.276 195.276 -390.551 195.669 -195.276 195.276 -390.551 195.276 -390.945 195.276 -195.276 195.276 -390.551 195.276 -390.551 195.276 -390.551 195.276 -195.669 195.276 -390.551 195.276 -390.551 195.276 -390.551 195.669 -390.551 195.276 -390.551 195.276 -390.945 195.276 -390.551 195.276 -390.551 195.276 -585.827 195.276 -390.551 195.276 -390.945 195.276 -585.827 195.276 -390.551 195.669 -585.827 195.276 -390.945 195.276 -585.827 195.276 -585.827 195.276 -585.827 195.276 -586.22 195.276 -585.827 195.276 -781.102 195.276 -586.22 195.276 -781.102 195.276 -781.102 195.276 -781.496 195.669 -976.378 195.276 -976.772 195.276 -1171.65 195.276 -1562.6 195.276 -1757.87 0 -8984.25 -195.276 -1757.87 -195.276 -1562.6 -195.276 -1171.65 -195.276 -976.772 -195.669 -976.378 -195.276 -781.496 -195.276 -781.102 -195.276 -781.102 -195.276 -586.22 -195.276 -781.102 -195.276 -585.827 -195.276 -586.22 -195.276 -585.827 -195.276 -585.827 -195.276 -585.827 -195.276 -390.945 -195.669 -585.827 -195.276 -390.551 -195.276 -585.827 -195.276 -390.945 -195.276 -390.551 -195.276 -585.827 -195.276 -390.551 -195.276 -390.551 -195.276 -390.945 -195.276 -390.551 -195.669 -390.551 -195.276 -390.551 -195.276 -390.551 -195.276 -390.551 -195.276 -195.669 -195.276 -390.551 -195.276 -390.551 -195.276 -390.551 -195.276 -195.276 -195.276 -390.945 -195.276 -390.551 -195.669 -195.276 -195.276 -390.551 -195.276 -195.276 -195.276 -390.551 -195.276 -195.276 -195.276 -390.551 -195.276 -195.669 -195.276 -390.551 -195.276 -195.276 -195.276 -390.551 -195.276 -195.276 -195.669 -195.276 -195.276 -390.551 -195.276 -195.669 -195.276 -195.276 -195.276 -390.551 -195.276 -195.276 -195.276 -195.276 -195.276 -195.276 -195.276 -390.551 -195.276 -195.276 -195.669 -195.276 -195.276 -195.669 -195.276 -195.276 -195.276 -195.276 -195.276 -390.551 -195.276 -195.276 -195.276 -195.276 -195.276 -195.276 -195.276 -195.276 -195.276 -195.276 -195.276 -195.276 -195.669 -195.669 -195.276 -195.276 -195.276 -195.276 -195.276 -195.276 -195.276 -195.276 -195.276 -195.276 -195.276 -195.276 -195.276 -195.276 -195.276 -195.276 -195.276 -195.276 -195.669 -195.669 -195.276 -195.276 -195.276 -195.276 -195.276 -195.276 -195.276 -195.276 -195.276 -195.276 -195.276 -195.276 -195.276 -195.276 -390.551 -195.276 -195.276 -195.276 -195.669 -195.276 -195.276 -195.669 -195.276 -195.276 -390.551 -195.276 -195.276 -195.276 -195.276 -195.276 -195.276 -195.276 -390.551 -195.276 -195.276 -195.276 -195.669 -195.276 -390.551 -195.276 -195.276 -195.669 -195.276 -195.276 -390.551 -195.276 -195.276 -195.276 -390.551 -195.276 -195.669 -195.276 -390.551 -195.276 -195.276 -195.276 -390.551 -195.276 -195.276 -195.276 -390.551 -195.276 -195.276 -195.669 -390.551 -195.276 -390.945 -195.276 -195.276 -195.276 -390.551 -195.276 -390.551 -195.276 -390.551 -195.276 -195.669 -195.276 -390.551 -195.276 -390.551 -195.276 -390.551 -195.276 -390.551 -195.669 -390.551 -195.276 -390.945 -195.276 -390.551 -195.276 -390.551 -195.276 -585.827 -195.276 -390.551 -195.276 -390.945 -195.276 -585.827 -195.276 -390.551 -195.276 -585.827 -195.669 -390.945 -195.276 -585.827 -195.276 -585.827 -195.276 -585.827 -195.276 -586.22 -195.276 -585.827 -195.276 -781.102 -195.276 -586.22 -195.276 -781.102 -195.276 -781.102 -195.276 -781.496 -195.276 -976.378 -195.669 -976.772 -195.276 -1171.65 -195.276 -1562.6 -195.276 -1757.87 -195.276 -8984.25 0 -1757.87 195.276z"/>
 </g>
</svg>
