<svg width="22" height="22" viewBox="0 0 22 22" fill="none" xmlns="http://www.w3.org/2000/svg">
<path d="M21.6563 20.5516L15.7563 14.6516C17.1741 12.9495 17.8811 10.7663 17.7302 8.55619C17.5794 6.34609 16.5822 4.27923 14.9463 2.78557C13.3103 1.29192 11.1615 0.486478 8.94686 0.5368C6.73218 0.587122 4.62216 1.48933 3.05575 3.05575C1.48933 4.62216 0.587122 6.73218 0.5368 8.94686C0.486478 11.1615 1.29192 13.3103 2.78557 14.9463C4.27923 16.5822 6.34609 17.5794 8.55619 17.7302C10.7663 17.8811 12.9495 17.1741 14.6516 15.7563L20.5516 21.6563L21.6563 20.5516ZM2.12501 9.15626C2.12501 7.76561 2.53739 6.40619 3.30999 5.24991C4.0826 4.09363 5.18073 3.19241 6.46552 2.66024C7.75031 2.12806 9.16406 1.98882 10.528 2.26012C11.8919 2.53142 13.1448 3.20108 14.1281 4.18442C15.1114 5.16776 15.7811 6.42061 16.0524 7.78454C16.3237 9.14846 16.1845 10.5622 15.6523 11.847C15.1201 13.1318 14.2189 14.2299 13.0626 15.0025C11.9063 15.7751 10.5469 16.1875 9.15626 16.1875C7.2921 16.1854 5.50487 15.444 4.1867 14.1258C2.86854 12.8077 2.12708 11.0204 2.12501 9.15626Z" fill="#201164"/>
</svg>
